<svg width="512" height="512" viewBox="0 0 512 512" fill="none" xmlns="http://www.w3.org/2000/svg">
<mask id="mask0_3_25" style="mask-type:luminance" maskUnits="userSpaceOnUse" x="0" y="0" width="512" height="512">
<path d="M512 0H0V512H512V0Z" fill="white"/>
</mask>
<g mask="url(#mask0_3_25)">
<mask id="mask1_3_25" style="mask-type:alpha" maskUnits="userSpaceOnUse" x="-1" y="-1" width="513" height="513">
<path d="M104.52 -0.267998C105.87 -0.271998 107.23 -0.27599 108.58 -0.28199C112.28 -0.29399 115.97 -0.293993 119.67 -0.290993C123.67 -0.290993 127.66 -0.301997 131.66 -0.310997C139.48 -0.327997 147.3 -0.332999 155.12 -0.334999C161.49 -0.335999 167.85 -0.339986 174.21 -0.345986C192.28 -0.363986 210.35 -0.372995 228.42 -0.370995C229.88 -0.370995 229.88 -0.370995 231.37 -0.370995C232.34 -0.370995 233.31 -0.370995 234.32 -0.370995C250.09 -0.369995 265.86 -0.389 281.63 -0.417C297.86 -0.446 314.08 -0.459985 330.31 -0.457985C339.4 -0.456985 348.5 -0.462986 357.6 -0.483986C365.34 -0.502986 373.09 -0.506989 380.84 -0.492989C384.79 -0.486989 388.73 -0.48599 392.68 -0.50399C411.34 -0.58099 429.44 -0.471996 446.85 7.172C447.88 7.615 447.88 7.615 448.94 8.068C473.43 18.957 493.75 39.275 503.92 64.155C508.98 77.542 511.27 90.177 511.24 104.518C511.24 105.873 511.25 107.229 511.25 108.584C511.26 112.279 511.26 115.975 511.26 119.67C511.26 123.667 511.27 127.664 511.28 131.661C511.3 139.482 511.3 147.302 511.3 155.123C511.3 161.486 511.31 167.849 511.32 174.211C511.33 192.28 511.34 210.349 511.34 228.418C511.34 229.877 511.34 229.877 511.34 231.366C511.34 232.34 511.34 233.314 511.34 234.317C511.34 250.09 511.36 265.862 511.39 281.635C511.42 297.859 511.43 314.083 511.43 330.307C511.43 339.404 511.43 348.501 511.45 357.598C511.47 365.345 511.48 373.093 511.46 380.84C511.46 384.786 511.46 388.732 511.47 392.677C511.55 411.34 511.44 429.444 503.8 446.85C503.5 447.54 503.21 448.23 502.9 448.941C492.01 473.43 471.69 493.746 446.81 503.92C433.43 508.98 420.79 511.274 406.45 511.238C405.1 511.241 403.74 511.246 402.39 511.251C398.69 511.264 394.99 511.263 391.3 511.261C387.3 511.261 383.31 511.272 379.31 511.281C371.49 511.298 363.67 511.303 355.85 511.304C349.48 511.305 343.12 511.309 336.76 511.316C318.69 511.333 300.62 511.342 282.55 511.341C281.58 511.341 280.61 511.341 279.6 511.341C278.63 511.341 277.66 511.341 276.65 511.34C260.88 511.34 245.11 511.359 229.33 511.387C213.11 511.416 196.89 511.429 180.66 511.428C171.57 511.427 162.47 511.432 153.37 511.454C145.62 511.472 137.88 511.476 130.13 511.463C126.18 511.456 122.24 511.456 118.29 511.474C99.6301 511.551 81.5301 511.441 64.1201 503.798C63.4301 503.502 62.7401 503.207 62.0301 502.902C37.5401 492.013 17.2201 471.695 7.05013 446.814C1.99013 433.428 -0.299939 420.793 -0.269939 406.451C-0.269939 405.096 -0.279948 403.741 -0.279948 402.386C-0.289948 398.691 -0.289958 394.995 -0.289958 391.3C-0.289958 387.303 -0.299978 383.306 -0.309978 379.309C-0.329978 371.488 -0.329885 363.667 -0.339885 355.846C-0.339885 349.484 -0.339895 343.121 -0.349895 336.759C-0.359895 318.69 -0.369914 300.621 -0.369914 282.552C-0.369914 281.579 -0.369914 280.606 -0.369914 279.604C-0.369914 278.63 -0.369914 277.656 -0.369914 276.653C-0.369914 260.88 -0.389963 245.107 -0.419963 229.335C-0.449963 213.111 -0.45988 196.887 -0.45988 180.662C-0.45988 171.566 -0.4599 162.469 -0.4799 153.372C-0.4999 145.624 -0.509909 137.877 -0.489909 130.129C-0.489909 126.184 -0.489919 122.238 -0.499919 118.292C-0.579919 99.629 -0.469875 81.526 7.17013 64.12C7.47013 63.43 7.76003 62.74 8.07003 62.029C18.96 37.54 39.2701 17.223 64.1501 7.05001C77.5401 1.99001 90.1801 -0.303998 104.52 -0.267998Z" fill="white"/>
</mask>
<g mask="url(#mask1_3_25)">
<path d="M582 -87H-120V580H582V-87Z" fill="white"/>
</g>
<mask id="mask2_3_25" style="mask-type:luminance" maskUnits="userSpaceOnUse" x="31" y="205" width="450" height="103">
<path d="M481 205H31V307.656H481V205Z" fill="white"/>
</mask>
<g mask="url(#mask2_3_25)">
<path d="M271.51 234.018C277.99 239.633 281.53 247.224 282.16 255.727C282.37 263.795 279.68 270.766 274.49 276.875C274.31 277.107 274.14 277.339 273.95 277.578C269.41 283.01 261.85 286.175 254.96 286.936C246.88 287.651 239.51 285.622 233.15 280.531C226.93 275.282 222.79 268.447 221.9 260.281C221.55 255.696 221.82 251.425 223.3 247.062C223.41 246.75 223.51 246.437 223.62 246.115C224.99 242.511 227.12 239.424 229.77 236.656C229.99 236.372 230.21 236.087 230.44 235.795C232.4 233.603 234.85 231.961 237.37 230.468C237.68 230.282 237.99 230.096 238.32 229.904C248.92 223.898 262.49 226.466 271.51 234.018Z" fill="url(#paint0_linear_3_25)"/>
<path d="M228.23 234.449C233.48 239.062 237.48 246.002 238.07 253.012C238.62 262.884 236.46 270.499 229.8 277.964C227.81 280.062 225.63 281.608 223.17 283.106C222.9 283.271 222.63 283.436 222.36 283.607C216.13 287.24 207.62 288.115 200.66 286.354C192.64 284.118 186.05 278.996 181.82 271.856C179.15 267.04 178.07 262.041 178.08 256.563C178.08 256.222 178.07 255.881 178.07 255.53C178.06 247.319 182.16 240.322 187.83 234.634C189.6 232.959 191.53 231.721 193.64 230.512C193.96 230.323 194.27 230.134 194.6 229.939C205.51 223.737 219.01 226.801 228.23 234.449Z" fill="url(#paint1_linear_3_25)"/>
<path d="M76.2801 208.343C80.3001 210.426 84.3901 213.597 86.2901 217.838C86.8001 220.112 86.4202 221.983 85.3602 224.043C84.1302 225.699 82.5902 226.928 80.5702 227.418C76.6102 227.96 74.1201 226.302 70.9101 224.231C66.5601 221.477 61.4201 220.838 56.4001 221.828C53.9001 222.5 51.6 223.758 50.2 226.012C49.3 227.875 48.9301 229.821 49.6001 231.809C50.3401 233.454 51.1301 234.472 52.7301 235.293C52.9601 235.411 53.1901 235.528 53.4201 235.649C56.4401 237.046 59.7301 237.515 62.9801 238.101C71.6501 239.678 81.12 242.422 86.4 250.049C89.81 255.512 90.4501 261.64 89.0601 267.908C87.5401 273.677 83.2002 278.745 78.3202 281.981C78.0502 282.178 77.7801 282.375 77.5001 282.578C69.8301 287.272 60.5801 288.224 51.8901 286.199C51.6901 286.154 51.4901 286.109 51.2801 286.062C43.9301 284.321 36.8301 279.464 32.8101 273.002C31.2701 270.255 30.8 267.99 31.07 264.824C31.32 263.956 31.67 263.301 32.2 262.574C32.51 262.131 32.51 262.131 32.83 261.678C34.46 260.015 36.3901 258.94 38.7401 258.813C42.0001 258.927 44.1001 260.903 46.2601 263.137C46.9201 263.854 47.5701 264.581 48.2201 265.309C51.2001 268.616 54.9801 270.223 59.3901 270.519C63.1201 270.676 66.9901 269.981 70.1701 267.918C70.4001 267.688 70.4001 267.688 70.6301 267.454C71.0101 267.074 71.01 267.074 71.57 267.074C71.77 266.703 71.9501 266.327 72.1401 265.949C72.2901 265.659 72.4401 265.369 72.5901 265.07C73.2801 263.435 73.2001 261.651 72.6801 259.973C72.0101 258.409 70.7701 257.552 69.3101 256.774C68.9401 256.637 68.57 256.509 68.2 256.387C67.81 256.253 67.8101 256.253 67.4101 256.117C65.1201 255.399 62.8701 255.033 60.5001 254.72C58.6201 254.468 56.8101 254.096 54.9801 253.574C54.5801 253.47 54.5801 253.47 54.1801 253.363C53.4101 253.161 52.6501 252.949 51.8901 252.731C51.6901 252.677 51.5001 252.624 51.3001 252.569C44.9601 250.66 38.7601 246.643 35.2901 240.918C32.6201 235.769 31.6901 229.211 33.2801 223.559C34.4401 220.284 35.7301 217.346 38.1101 214.762C38.2901 214.542 38.4701 214.321 38.6601 214.094C39.6301 212.937 39.63 212.937 40.07 212.512C40.26 212.512 40.4501 212.512 40.6401 212.512C40.6401 212.326 40.6401 212.141 40.6401 211.95C44.8901 208.249 50.1601 205.805 55.7601 205.291C62.9801 204.566 69.6501 205.06 76.2801 208.343Z" fill="url(#paint2_linear_3_25)"/>
<path d="M133.73 231.637C134.63 231.213 135.43 230.698 136.26 230.143C141.62 226.73 147.86 226.065 154 227.37C160 229.005 165.17 233.53 168.32 238.748C170.97 243.667 171.03 248.627 171.01 254.09C171.02 254.813 171.02 255.536 171.02 256.258C171.02 257.765 171.02 259.271 171.02 260.778C171.01 262.51 171.02 264.242 171.03 265.975C171.03 267.656 171.04 269.336 171.03 271.017C171.03 271.726 171.03 272.436 171.04 273.145C171.04 274.137 171.04 275.129 171.03 276.122C171.04 276.41 171.04 276.698 171.04 276.994C171.01 279.667 170.16 282.425 168.26 284.38C166.12 286.163 164 286.474 161.29 286.333C158.85 286.106 157.46 284.752 155.87 282.986C154.55 281.009 154.42 279.187 154.44 276.875C154.44 276.568 154.44 276.262 154.44 275.946C154.44 275.283 154.44 274.62 154.44 273.957C154.45 272.907 154.45 271.857 154.44 270.808C154.43 268.012 154.44 265.216 154.44 262.42C154.44 260.404 154.44 258.388 154.43 256.371C154.43 255.676 154.43 254.981 154.44 254.286C154.44 253.313 154.44 252.341 154.43 251.368C154.44 251.082 154.44 250.797 154.45 250.503C154.42 248.275 153.77 246.9 152.2 245.331C150.49 244.254 148.97 243.82 146.95 244.012C145.19 244.578 144.16 245.413 143.12 246.926C142.53 248.468 142.62 249.949 142.64 251.584C142.63 252.309 142.63 253.034 142.63 253.759C142.62 254.897 142.62 256.035 142.63 257.173C142.63 258.275 142.63 259.377 142.62 260.478C142.62 260.815 142.63 261.153 142.63 261.5C142.61 264.066 142.04 265.932 140.34 267.883C140.11 268.081 139.88 268.278 139.64 268.481C139.42 268.678 139.21 268.875 138.99 269.078C136.98 270.477 135 270.728 132.61 270.45C130.43 269.875 128.58 268.52 127.36 266.638C126.19 264.461 125.9 262.732 125.95 260.285C125.95 259.946 125.95 259.606 125.95 259.256C125.94 258.183 125.95 257.109 125.96 256.035C125.97 254.958 125.97 253.881 125.97 252.803C125.97 252.135 125.97 251.468 125.98 250.801C125.98 248.549 125.62 247.151 124.24 245.331C122.72 244.194 121.11 243.85 119.24 243.913C117.73 244.129 116.65 244.749 115.63 245.858C115.47 246.084 115.32 246.31 115.17 246.543C114.98 246.822 114.8 247.1 114.61 247.387C114.52 247.995 114.52 247.995 114.53 248.674C114.53 249.071 114.53 249.071 114.53 249.475C114.53 249.764 114.53 250.053 114.53 250.351C114.53 250.809 114.53 250.809 114.53 251.276C114.53 251.94 114.53 252.604 114.53 253.267C114.53 254.32 114.52 255.372 114.52 256.425C114.51 259.417 114.5 262.41 114.5 265.403C114.5 267.233 114.49 269.063 114.48 270.893C114.48 271.589 114.48 272.285 114.48 272.981C114.48 273.959 114.47 274.936 114.47 275.913C114.47 276.198 114.47 276.483 114.48 276.776C114.44 279.879 113.5 282.27 111.32 284.482C109.34 286.272 107.42 286.44 104.8 286.323C102.92 286.17 101.57 285.553 100.25 284.205C98.3001 281.85 97.89 279.942 97.89 276.949C97.89 276.616 97.89 276.284 97.89 275.942C97.88 275.034 97.88 274.126 97.88 273.218C97.88 272.456 97.88 271.694 97.88 270.932C97.87 269.128 97.8702 267.326 97.8702 265.523C97.8702 263.676 97.8702 261.829 97.8602 259.982C97.8502 258.387 97.8402 256.792 97.8402 255.197C97.8502 254.249 97.8402 253.301 97.8402 252.352C97.7902 244.418 99.1702 238.662 104.83 232.868C112.96 224.775 124.88 225.124 133.73 231.637Z" fill="url(#paint3_linear_3_25)"/>
<path d="M403 232.768C408.54 237.164 412.51 242.714 414.25 249.588C414.34 249.893 414.42 250.198 414.51 250.512C415.25 253.506 415.85 257.271 414.53 260.188C413.25 262.269 411.77 263.358 409.45 264.032C407.99 264.354 406.54 264.337 405.05 264.335C404.54 264.339 404.54 264.339 404.01 264.344C403.07 264.351 402.13 264.354 401.19 264.356C400.2 264.359 399.22 264.366 398.23 264.373C396.37 264.385 394.5 264.393 392.64 264.4C390.52 264.407 388.4 264.42 386.28 264.432C381.91 264.458 377.55 264.478 373.19 264.495C373.5 264.899 373.81 265.302 374.12 265.704C374.29 265.929 374.46 266.154 374.64 266.385C376.75 268.991 380 270.67 383.33 271.025C383.92 271.059 384.5 271.07 385.09 271.069C385.3 271.068 385.51 271.068 385.72 271.068C388.18 271.013 390.2 270.146 392.33 268.947C394.19 268.155 396.54 268.177 398.5 268.432C400.83 269.381 402.5 271.003 403.57 273.257C404.38 275.357 404.43 277.359 403.65 279.471C402.17 282.755 399.27 284.31 396 285.588C388.29 288.367 379.13 287.612 371.79 284.203C369.41 283.056 367.3 281.711 365.31 279.963C365.09 279.787 364.87 279.61 364.65 279.427C359.42 275.076 355.3 268.103 354.67 261.259C354.09 251.688 355.99 243.733 362.38 236.384C365.14 233.508 368.45 231.03 372.06 229.338C372.33 229.215 372.59 229.092 372.86 228.965C382.8 224.734 394.39 226.478 403 232.768Z" fill="url(#paint4_linear_3_25)"/>
<path d="M434.87 227.961C436.98 229.45 438.09 231.075 438.72 233.557C438.83 234.448 438.84 235.326 438.83 236.222C438.83 236.476 438.83 236.729 438.83 236.99C438.84 237.535 438.84 238.081 438.84 238.626C438.83 239.492 438.84 240.358 438.84 241.224C438.85 243.063 438.86 244.902 438.86 246.741C438.87 248.872 438.87 251.002 438.88 253.133C438.89 253.981 438.89 254.83 438.89 255.678C438.9 260.273 439.54 263.722 442.71 267.255C445.62 269.991 449.03 270.253 452.79 270.198C455.72 270.087 458.26 268.793 460.37 266.778C461.5 265.559 462.27 264.33 462.91 262.807C463.01 262.594 463.1 262.381 463.2 262.162C464.23 259.568 464.19 257.046 464.18 254.3C464.18 253.444 464.18 252.588 464.18 251.731C464.19 250.223 464.19 248.715 464.19 247.207C464.19 244.789 464.2 242.372 464.21 239.954C464.21 239.114 464.21 238.273 464.2 237.432C464.21 236.914 464.21 236.397 464.21 235.879C464.21 235.648 464.21 235.417 464.2 235.178C464.23 232.515 465.19 230.764 467.01 228.834C468.96 227.058 471.11 226.67 473.68 226.694C476.09 226.956 477.84 228.308 479.38 230.12C480.53 231.896 480.75 233.334 480.74 235.408C480.74 235.803 480.74 235.803 480.74 236.206C480.74 237.074 480.74 237.941 480.74 238.809C480.74 239.417 480.74 240.026 480.74 240.635C480.74 241.911 480.74 243.188 480.74 244.465C480.73 246.086 480.74 247.708 480.74 249.329C480.74 250.588 480.74 251.847 480.74 253.105C480.74 253.702 480.74 254.299 480.74 254.896C480.77 264.31 478.61 271.853 472.01 278.777C470.09 280.598 467.98 281.991 465.72 283.338C465.31 283.588 465.31 283.588 464.89 283.842C463.62 284.58 462.45 285.09 461.03 285.471C460.75 285.545 460.47 285.62 460.18 285.698C459.97 285.755 459.75 285.811 459.53 285.87C459.54 286.054 459.54 286.238 459.54 286.427C459.57 288.353 459.58 290.278 459.59 292.204C459.6 292.921 459.61 293.639 459.62 294.356C459.63 295.391 459.64 296.426 459.64 297.46C459.65 297.778 459.66 298.096 459.66 298.423C459.66 301.299 458.95 303.536 456.96 305.644C455.11 307.33 453.18 307.598 450.75 307.569C448.36 307.438 446.68 306.561 445.01 304.837C443.07 302.476 442.78 299.897 442.83 296.932C442.83 296.605 442.83 296.279 442.83 295.942C442.84 294.911 442.85 293.88 442.87 292.848C442.87 292.144 442.88 291.44 442.88 290.736C442.9 289.02 442.92 287.304 442.94 285.588C442.77 285.553 442.6 285.518 442.42 285.481C442.2 285.433 441.97 285.385 441.74 285.335C441.52 285.288 441.29 285.241 441.06 285.193C440.1 284.947 439.25 284.523 438.39 284.042C438.12 283.894 438.12 283.894 437.85 283.744C431.17 279.993 425.61 274.095 423.49 266.594C422.65 263.124 422.09 259.648 422.08 256.074C422.08 255.836 422.08 255.599 422.08 255.355C422.07 254.579 422.07 253.802 422.07 253.026C422.07 252.759 422.07 252.491 422.07 252.216C422.06 250.803 422.06 249.39 422.06 247.978C422.06 246.525 422.05 245.072 422.04 243.619C422.04 242.496 422.04 241.372 422.04 240.248C422.04 239.713 422.03 239.177 422.03 238.642C422 234.581 422.04 231.643 425.03 228.597C427.87 226.08 431.63 226.12 434.87 227.961Z" fill="url(#paint5_linear_3_25)"/>
<path d="M328.47 229.339C328.78 229.483 329.09 229.628 329.41 229.777C331.75 230.877 333.79 232.189 335.78 233.838C336.04 234.053 336.31 234.266 336.57 234.487C341.89 239.084 345.36 245.441 346.47 252.401C346.51 253.284 346.52 254.167 346.52 255.051C346.52 255.316 346.52 255.581 346.53 255.854C346.53 256.729 346.53 257.604 346.54 258.479C346.54 258.778 346.54 259.078 346.54 259.387C346.55 260.972 346.55 262.558 346.55 264.144C346.56 265.779 346.57 267.413 346.58 269.047C346.59 270.307 346.59 271.567 346.59 272.827C346.59 273.43 346.59 274.032 346.6 274.634C346.6 275.479 346.6 276.324 346.6 277.168C346.61 277.538 346.61 277.538 346.61 277.915C346.59 280.414 345.66 282.429 343.95 284.239C342.07 285.906 340.25 286.341 337.77 286.233C334.98 285.966 333.31 284.923 331.46 282.858C330.26 281.153 330.04 279.705 330.06 277.674C330.06 277.424 330.06 277.174 330.06 276.916C330.06 276.376 330.06 275.836 330.06 275.296C330.06 274.438 330.06 273.581 330.06 272.723C330.05 270.285 330.05 267.848 330.06 265.41C330.06 263.916 330.06 262.422 330.05 260.928C330.05 260.362 330.05 259.796 330.05 259.229C330.07 256.124 330.06 253.486 328.47 250.713C328.33 250.474 328.2 250.234 328.06 249.987C327.13 248.44 325.96 247.301 324.53 246.213C324.37 246.083 324.2 245.953 324.03 245.819C321.04 243.722 317.12 243.206 313.56 243.682C310.14 244.511 307.59 246.37 305.69 249.307C305.58 249.476 305.47 249.644 305.36 249.818C304.17 251.765 303.92 253.604 303.93 255.825C303.92 256.201 303.92 256.201 303.92 256.585C303.92 257.127 303.92 257.669 303.92 258.211C303.92 259.071 303.91 259.931 303.91 260.79C303.89 263.234 303.88 265.678 303.87 268.122C303.87 269.619 303.86 271.117 303.85 272.615C303.85 273.183 303.85 273.752 303.85 274.32C303.85 275.117 303.84 275.915 303.83 276.712C303.84 276.943 303.84 277.175 303.84 277.413C303.8 280.08 303.15 282.262 301.27 284.187C299.33 285.869 297.57 286.346 295.01 286.232C292.73 286.016 290.77 285.373 289.17 283.659C287.57 281.62 287 279.886 287.02 277.328C287.02 277.072 287.02 276.815 287.01 276.55C287.01 275.705 287.01 274.859 287.02 274.013C287.01 273.421 287.01 272.828 287.01 272.236C287.01 270.994 287.01 269.753 287.02 268.511C287.02 266.93 287.02 265.35 287.01 263.769C287.01 262.545 287.01 261.32 287.01 260.096C287.01 259.514 287.01 258.932 287.01 258.35C287 255.038 287.14 251.963 287.97 248.745C288.03 248.531 288.08 248.317 288.13 248.097C290.29 240.203 295.84 234.019 302.79 229.936C310.35 226.012 320.85 225.159 328.47 229.339Z" fill="url(#paint6_linear_3_25)"/>
<path d="M216.3 246.004C219.13 248.238 221.02 250.843 221.76 254.418C222.02 256.924 221.98 259.414 220.92 261.731C220.84 261.937 220.76 262.143 220.68 262.355C219.64 264.986 217.95 266.96 215.57 268.481C215.37 268.611 215.17 268.742 214.96 268.876C211.82 270.754 207.76 271.001 204.21 270.246C202.62 269.696 201.2 268.89 199.82 267.918C199.58 267.75 199.34 267.582 199.09 267.408C196.35 264.884 194.7 261.516 194.42 257.829C194.29 253.804 195.58 250.272 198.33 247.299C203.36 242.639 210.63 242.055 216.3 246.004Z" fill="#FDFDFD"/>
<path d="M258.99 245.265C259.69 245.736 260.34 246.232 260.99 246.781C261.19 246.952 261.39 247.122 261.6 247.298C263.96 249.466 265.42 252.315 265.58 255.531C265.58 255.925 265.58 256.319 265.58 256.713C265.58 256.921 265.58 257.129 265.57 257.344C265.49 261.154 263.98 264.195 261.4 266.981C258.64 269.419 255.53 270.519 251.88 270.494C251.65 270.492 251.41 270.491 251.17 270.489C247.69 270.421 244.89 269.222 242.36 266.802C239.85 264.119 238.17 260.925 238.05 257.187C238.2 253.802 239.17 251.087 241.3 248.468C241.52 248.172 241.73 247.877 241.95 247.572C246.51 242.802 253.32 242.101 258.99 245.265Z" fill="#FDFDFD"/>
<path d="M390.63 243.401C390.85 243.487 391.06 243.573 391.29 243.661C392.82 244.328 394.01 245.222 395.23 246.337C395.37 246.464 395.51 246.592 395.66 246.724C396.58 247.594 397.31 248.494 397.94 249.588C397.94 249.867 397.94 250.145 397.94 250.432C389.59 250.432 381.23 250.432 372.63 250.432C373.69 247.241 375.87 245.215 378.81 243.682C382.26 242.125 387.17 241.821 390.63 243.401Z" fill="#FCFCFC"/>
</g>
</g>
<defs>
<linearGradient id="paint0_linear_3_25" x1="251.97" y1="226.574" x2="251.97" y2="287.075" gradientUnits="userSpaceOnUse">
<stop stop-color="#001B2F"/>
<stop offset="1" stop-color="#05416F"/>
</linearGradient>
<linearGradient id="paint1_linear_3_25" x1="208.11" y1="226.623" x2="208.11" y2="287.232" gradientUnits="userSpaceOnUse">
<stop stop-color="#001B2F"/>
<stop offset="1" stop-color="#05416F"/>
</linearGradient>
<linearGradient id="paint2_linear_3_25" x1="60.3701" y1="205" x2="60.3701" y2="287.204" gradientUnits="userSpaceOnUse">
<stop stop-color="#12C6BE"/>
<stop offset="0.46" stop-color="#0DA9B1"/>
<stop offset="1" stop-color="#0888A1"/>
</linearGradient>
<linearGradient id="paint3_linear_3_25" x1="134.44" y1="226.747" x2="134.44" y2="286.363" gradientUnits="userSpaceOnUse">
<stop stop-color="#001B2F"/>
<stop offset="1" stop-color="#05416F"/>
</linearGradient>
<linearGradient id="paint4_linear_3_25" x1="384.94" y1="226.65" x2="384.94" y2="287.285" gradientUnits="userSpaceOnUse">
<stop stop-color="#001B2F"/>
<stop offset="1" stop-color="#05416F"/>
</linearGradient>
<linearGradient id="paint5_linear_3_25" x1="451.38" y1="226.637" x2="451.38" y2="307.571" gradientUnits="userSpaceOnUse">
<stop stop-color="#001B2F"/>
<stop offset="1" stop-color="#05416F"/>
</linearGradient>
<linearGradient id="paint6_linear_3_25" x1="316.81" y1="226.574" x2="316.81" y2="286.249" gradientUnits="userSpaceOnUse">
<stop stop-color="#001B2F"/>
<stop offset="1" stop-color="#05416F"/>
</linearGradient>
</defs>
</svg>
