<svg width="1812" height="542" viewBox="0 0 1812 542" fill="none" xmlns="http://www.w3.org/2000/svg">
<mask id="mask0_3_146" style="mask-type:luminance" maskUnits="userSpaceOnUse" x="0" y="0" width="1812" height="542">
<path d="M1812 0H0V542H1812V0Z" fill="white"/>
</mask>
<g mask="url(#mask0_3_146)">
<path d="M1676 0H136C60.8893 0 0 60.8893 0 136V406C0 481.111 60.8893 542 136 542H1676C1751.11 542 1812 481.111 1812 406V136C1812 60.8893 1751.11 0 1676 0Z" fill="white"/>
<path d="M961.156 192.177C984.177 212.14 996.766 239.131 999.029 269.363C999.752 298.049 990.184 322.836 971.744 344.554C971.114 345.379 970.483 346.204 969.834 347.054C953.688 366.368 926.789 377.623 902.307 380.327C873.583 382.871 847.386 375.655 824.744 357.554C802.648 338.891 787.913 314.588 784.744 285.554C783.506 269.253 784.487 254.066 789.744 238.554C790.116 237.443 790.489 236.332 790.873 235.187C795.75 222.373 803.311 211.397 812.744 201.554C813.528 200.544 814.311 199.533 815.119 198.492C822.081 190.701 830.811 184.86 839.744 179.554C840.859 178.892 841.974 178.229 843.123 177.546C880.829 156.193 929.084 165.325 961.156 192.177Z" fill="url(#paint0_linear_3_146)"/>
<path d="M807.264 193.709C825.924 210.11 840.133 234.786 842.264 259.709C844.186 294.81 836.522 321.884 812.838 348.428C805.767 355.887 798.004 361.384 789.264 366.709C788.315 367.297 787.366 367.885 786.389 368.491C764.245 381.408 733.976 384.519 709.229 378.257C680.724 370.309 657.272 352.098 642.264 326.709C632.772 309.587 628.9 291.814 628.951 272.334C628.935 271.123 628.919 269.911 628.902 268.662C628.887 239.469 643.443 214.59 663.6 194.366C669.901 188.411 676.782 184.007 684.264 179.709C685.396 179.036 686.527 178.364 687.693 177.67C726.477 155.622 774.473 166.515 807.264 193.709Z" fill="url(#paint1_linear_3_146)"/>
<path d="M267.012 100.887C281.298 108.293 295.839 119.568 302.576 134.647C304.391 142.73 303.049 149.385 299.264 156.709C294.909 162.598 289.439 166.967 282.264 168.709C268.16 170.635 259.309 164.742 247.897 157.377C232.439 147.585 214.172 145.311 196.326 148.834C187.405 151.221 179.23 155.695 174.264 163.709C171.068 170.332 169.765 177.254 172.143 184.323C174.767 190.169 177.563 193.79 183.264 196.709C184.072 197.127 184.88 197.545 185.713 197.975C196.441 202.942 208.161 204.61 219.709 206.694C250.55 212.299 284.19 222.056 302.971 249.174C315.091 268.597 317.364 290.387 312.436 312.674C307.028 333.184 291.603 351.206 274.264 362.709C273.294 363.411 272.325 364.112 271.326 364.834C244.068 381.523 211.164 384.909 180.264 377.709C179.557 377.548 178.85 377.387 178.122 377.222C151.967 371.031 126.713 353.762 112.447 330.784C106.963 321.018 105.285 312.964 106.264 301.709C107.142 298.62 108.378 296.293 110.264 293.709C111.378 292.132 111.378 292.132 112.514 290.522C118.296 284.608 125.155 280.788 133.514 280.334C145.126 280.741 152.595 287.767 160.264 295.709C162.609 298.258 164.91 300.842 167.209 303.432C177.817 315.19 191.25 320.904 206.936 321.955C220.189 322.514 233.974 320.044 245.264 312.709C246.074 311.891 246.074 311.891 246.9 311.057C248.264 309.709 248.264 309.709 250.264 309.709C250.952 308.387 251.611 307.05 252.264 305.709C252.8 304.678 253.336 303.647 253.889 302.584C256.329 296.77 256.038 290.425 254.201 284.459C251.808 278.897 247.417 275.852 242.201 273.084C240.899 272.598 239.584 272.144 238.264 271.709C236.87 271.234 236.87 271.234 235.447 270.748C227.322 268.197 219.309 266.895 210.887 265.784C204.189 264.887 197.766 263.564 191.264 261.709C189.854 261.338 189.854 261.338 188.416 260.959C185.689 260.239 182.976 259.484 180.264 258.709C179.574 258.52 178.884 258.33 178.174 258.135C155.642 251.345 133.605 237.065 121.264 216.709C111.751 198.402 108.471 175.083 114.096 154.987C118.245 143.344 122.803 132.896 131.264 123.709C131.92 122.926 132.576 122.142 133.252 121.334C136.7 117.222 136.7 117.222 138.264 115.709C138.924 115.709 139.584 115.709 140.264 115.709C140.264 115.049 140.264 114.389 140.264 113.709C155.398 100.552 174.131 91.8608 194.033 90.0336C219.71 87.4566 243.428 89.2122 267.012 100.887Z" fill="url(#paint2_linear_3_146)"/>
<path d="M471.264 183.709C474.472 182.202 477.322 180.371 480.264 178.397C499.309 166.263 521.516 163.896 543.346 168.537C564.649 174.35 583.065 190.438 594.24 208.991C603.669 226.484 603.879 244.119 603.83 263.541C603.835 266.112 603.842 268.682 603.849 271.252C603.859 276.608 603.855 281.964 603.84 287.32C603.823 293.48 603.839 299.639 603.871 305.798C603.901 311.775 603.903 317.751 603.894 323.727C603.893 326.249 603.9 328.771 603.915 331.292C603.932 334.821 603.918 338.348 603.895 341.877C603.907 342.901 603.918 343.925 603.93 344.98C603.807 354.483 600.803 364.288 594.022 371.241C586.436 377.579 578.872 378.685 569.264 378.182C560.578 377.377 555.632 372.563 549.99 366.284C545.275 359.253 544.836 352.777 544.911 344.555C544.909 343.465 544.906 342.374 544.904 341.251C544.901 338.894 544.905 336.537 544.914 334.181C544.928 330.448 544.921 326.715 544.909 322.982C544.88 313.042 544.881 303.102 544.9 293.161C544.913 285.992 544.904 278.823 544.874 271.653C544.868 269.182 544.872 266.71 544.886 264.238C544.905 260.779 544.894 257.322 544.876 253.864C544.889 252.848 544.902 251.833 544.916 250.787C544.825 242.868 542.53 237.976 536.951 232.397C530.857 228.57 525.449 227.025 518.264 227.709C512.017 229.721 508.336 232.69 504.644 238.07C502.565 243.551 502.883 248.819 502.928 254.631C502.915 257.209 502.902 259.787 502.889 262.366C502.882 266.412 502.888 270.458 502.903 274.504C502.917 278.422 502.89 282.339 502.865 286.256C502.879 287.454 502.892 288.653 502.906 289.887C502.826 299.012 500.798 305.645 494.764 312.584C493.939 313.286 493.114 313.987 492.264 314.709C491.501 315.411 490.738 316.112 489.951 316.834C482.825 321.806 475.78 322.699 467.264 321.709C459.524 319.668 452.957 314.849 448.602 308.156C444.47 300.417 443.434 294.27 443.6 285.569C443.596 284.362 443.591 283.155 443.587 281.911C443.576 278.093 443.604 274.277 443.639 270.459C443.663 266.628 443.678 262.797 443.669 258.965C443.665 256.592 443.679 254.219 443.716 251.846C443.713 243.839 442.413 238.871 437.514 232.397C432.126 228.356 426.4 227.132 419.725 227.358C414.361 228.124 410.541 230.331 406.889 234.272C406.353 235.076 405.816 235.881 405.264 236.709C404.604 237.699 403.944 238.689 403.264 239.709C402.965 241.869 402.965 241.869 403.012 244.286C403.004 245.695 403.004 245.695 402.996 247.132C403 248.16 403.004 249.189 403.008 250.248C403.003 251.876 403.003 251.876 402.997 253.536C402.991 255.897 402.988 258.257 402.989 260.617C402.99 264.359 402.977 268.101 402.96 271.843C402.914 282.484 402.889 293.125 402.883 303.765C402.878 310.272 402.854 316.779 402.818 323.286C402.808 325.761 402.805 328.236 402.811 330.711C402.818 334.186 402.8 337.66 402.778 341.135C402.786 342.147 402.794 343.16 402.803 344.203C402.676 355.236 399.344 363.739 391.592 371.604C384.557 377.966 377.704 378.565 368.404 378.147C361.724 377.603 356.914 375.41 352.213 370.619C345.299 362.245 343.816 355.46 343.844 344.817C343.835 343.636 343.827 342.454 343.818 341.237C343.799 338.009 343.793 334.781 343.795 331.553C343.795 328.843 343.786 326.133 343.778 323.423C343.759 317.012 343.756 310.602 343.763 304.192C343.769 297.624 343.747 291.058 343.709 284.491C343.679 278.82 343.667 273.149 343.671 267.478C343.673 264.106 343.666 260.735 343.643 257.363C343.476 229.154 348.394 208.687 368.514 188.084C397.431 159.311 439.802 160.553 471.264 183.709Z" fill="url(#paint3_linear_3_146)"/>
<path d="M1428.68 187.732C1448.35 203.362 1462.48 223.096 1468.67 247.537C1468.97 248.621 1469.27 249.705 1469.58 250.822C1472.23 261.465 1474.35 274.852 1469.67 285.225C1465.12 292.625 1459.84 296.494 1451.59 298.892C1446.41 300.037 1441.26 299.976 1435.97 299.969C1434.13 299.985 1434.13 299.985 1432.24 300C1428.9 300.025 1425.56 300.037 1422.22 300.043C1418.71 300.053 1415.21 300.079 1411.7 300.103C1405.08 300.147 1398.46 300.175 1391.84 300.199C1384.29 300.226 1376.75 300.27 1369.2 300.315C1353.69 300.407 1338.18 300.479 1322.67 300.537C1323.77 301.973 1324.87 303.406 1325.98 304.838C1326.59 305.636 1327.2 306.435 1327.83 307.257C1335.32 316.525 1346.88 322.494 1358.73 323.756C1360.82 323.875 1362.89 323.917 1364.99 323.912C1365.73 323.91 1366.47 323.909 1367.23 323.907C1375.99 323.713 1383.17 320.632 1390.73 316.369C1397.33 313.55 1405.68 313.63 1412.67 314.537C1420.95 317.909 1426.89 323.677 1430.7 331.693C1433.56 339.159 1433.76 346.275 1430.99 353.787C1425.71 365.461 1415.39 370.99 1403.76 375.536C1376.36 385.415 1343.81 382.733 1317.68 370.61C1309.22 366.532 1301.75 361.749 1294.67 355.537C1293.89 354.908 1293.11 354.279 1292.3 353.631C1273.73 338.159 1259.05 313.367 1256.82 289.033C1254.78 255.001 1261.53 226.719 1284.24 200.588C1294.04 190.362 1305.83 181.552 1318.67 175.537C1319.61 175.099 1320.54 174.661 1321.5 174.209C1356.85 159.164 1398.04 165.366 1428.68 187.732Z" fill="url(#paint4_linear_3_146)"/>
<path d="M1541.98 170.639C1549.5 175.934 1553.42 181.711 1555.67 190.537C1556.06 193.705 1556.08 196.825 1556.06 200.013C1556.06 200.914 1556.07 201.814 1556.08 202.742C1556.09 204.682 1556.09 206.621 1556.09 208.561C1556.08 211.64 1556.09 214.718 1556.11 217.797C1556.15 224.335 1556.16 230.874 1556.17 237.412C1556.19 244.988 1556.21 252.563 1556.25 260.139C1556.27 263.156 1556.26 266.173 1556.26 269.19C1556.31 285.527 1558.57 297.788 1569.86 310.35C1580.2 320.079 1592.32 321.011 1605.7 320.814C1616.13 320.422 1625.14 315.819 1632.65 308.654C1636.65 304.32 1639.4 299.951 1641.67 294.537C1642.02 293.78 1642.36 293.023 1642.71 292.244C1646.36 283.021 1646.23 274.053 1646.19 264.29C1646.18 261.245 1646.19 258.201 1646.21 255.156C1646.23 249.794 1646.24 244.431 1646.24 239.068C1646.24 230.473 1646.25 221.877 1646.29 213.282C1646.3 210.293 1646.29 207.304 1646.28 204.315C1646.29 202.474 1646.3 200.633 1646.31 198.792C1646.3 197.97 1646.29 197.148 1646.28 196.301C1646.36 186.83 1649.79 180.607 1656.26 173.744C1663.18 167.428 1670.84 166.05 1679.96 166.135C1688.56 167.066 1694.77 171.874 1700.24 178.314C1704.32 184.632 1705.11 189.742 1705.06 197.118C1705.07 198.522 1705.07 198.522 1705.08 199.955C1705.09 203.04 1705.08 206.124 1705.07 209.209C1705.08 211.373 1705.08 213.537 1705.08 215.701C1705.09 220.24 1705.08 224.78 1705.07 229.319C1705.05 235.084 1705.06 240.85 1705.08 246.615C1705.09 251.091 1705.08 255.566 1705.08 260.041C1705.07 262.163 1705.08 264.286 1705.08 266.408C1705.17 299.879 1697.5 326.699 1674.02 351.318C1667.22 357.795 1659.7 362.746 1651.67 367.537C1650.21 368.423 1650.21 368.423 1648.73 369.326C1644.19 371.951 1640.06 373.764 1634.99 375.118C1633.99 375.384 1633 375.651 1631.98 375.926C1631.22 376.128 1630.46 376.329 1629.67 376.537C1629.68 377.191 1629.69 377.846 1629.7 378.52C1629.79 385.366 1629.85 392.212 1629.89 399.059C1629.91 401.61 1629.94 404.161 1629.98 406.711C1630.03 410.39 1630.05 414.069 1630.07 417.748C1630.09 418.878 1630.11 420.007 1630.13 421.171C1630.13 431.398 1627.61 439.351 1620.54 446.846C1613.93 452.841 1607.09 453.794 1598.46 453.689C1589.94 453.223 1583.96 450.107 1578.05 443.975C1571.15 435.583 1570.09 426.413 1570.28 415.869C1570.29 414.708 1570.3 413.547 1570.3 412.351C1570.32 408.684 1570.37 405.017 1570.42 401.35C1570.44 398.846 1570.46 396.343 1570.48 393.84C1570.52 387.739 1570.59 381.638 1570.67 375.537C1570.07 375.411 1569.46 375.285 1568.83 375.156C1568.03 374.984 1567.23 374.813 1566.4 374.637C1565.61 374.47 1564.82 374.302 1564 374.13C1560.57 373.257 1557.56 371.748 1554.49 370.037C1553.53 369.514 1553.53 369.514 1552.56 368.98C1528.83 355.641 1509.05 334.673 1501.51 308.002C1498.52 295.665 1496.53 283.303 1496.51 270.596C1496.51 269.752 1496.5 268.909 1496.5 268.04C1496.48 265.28 1496.48 262.52 1496.47 259.76C1496.47 258.81 1496.47 257.859 1496.46 256.881C1496.45 251.857 1496.44 246.833 1496.43 241.81C1496.43 236.644 1496.4 231.479 1496.38 226.313C1496.36 222.318 1496.35 218.323 1496.35 214.327C1496.35 212.424 1496.34 210.52 1496.33 208.617C1496.23 194.178 1496.38 183.732 1507.01 172.9C1517.1 163.95 1530.46 164.092 1541.98 170.639Z" fill="url(#paint5_linear_3_146)"/>
<path d="M1163.67 175.537C1164.78 176.051 1165.88 176.566 1167.01 177.096C1175.33 181.007 1182.57 185.671 1189.67 191.537C1190.6 192.298 1191.53 193.058 1192.48 193.842C1211.4 210.189 1223.71 232.79 1227.67 257.537C1227.83 260.677 1227.84 263.815 1227.85 266.958C1227.86 267.9 1227.86 268.842 1227.87 269.813C1227.89 272.924 1227.9 276.035 1227.91 279.146C1227.92 280.212 1227.92 281.277 1227.93 282.375C1227.95 288.013 1227.96 293.652 1227.97 299.29C1227.98 305.102 1228.02 310.913 1228.05 316.724C1228.08 321.204 1228.09 325.684 1228.09 330.164C1228.1 332.306 1228.11 334.447 1228.13 336.589C1228.15 339.593 1228.15 342.595 1228.14 345.599C1228.16 346.913 1228.16 346.913 1228.18 348.254C1228.11 357.138 1224.78 364.304 1218.71 370.74C1212.01 376.666 1205.56 378.214 1196.73 377.83C1186.83 376.88 1180.87 373.17 1174.29 365.83C1170.02 359.765 1169.24 354.619 1169.32 347.396C1169.32 346.507 1169.32 345.618 1169.32 344.702C1169.31 342.782 1169.32 340.861 1169.33 338.941C1169.34 335.891 1169.33 332.842 1169.32 329.793C1169.29 321.126 1169.29 312.459 1169.31 303.792C1169.33 298.48 1169.31 293.168 1169.28 287.856C1169.28 285.842 1169.28 283.829 1169.3 281.815C1169.37 270.775 1169.33 261.395 1163.67 251.537C1163.19 250.685 1162.7 249.833 1162.2 248.955C1158.9 243.452 1154.75 239.405 1149.67 235.537C1149.08 235.074 1148.49 234.612 1147.88 234.135C1137.27 226.68 1123.31 224.844 1110.67 226.537C1098.49 229.482 1089.44 236.093 1082.67 246.537C1082.28 247.136 1081.89 247.736 1081.49 248.353C1077.26 255.275 1076.38 261.813 1076.4 269.71C1076.4 271.048 1076.4 271.048 1076.39 272.413C1076.38 274.34 1076.37 276.268 1076.37 278.195C1076.37 281.252 1076.35 284.309 1076.33 287.366C1076.27 296.055 1076.24 304.744 1076.22 313.433C1076.2 318.758 1076.17 324.083 1076.13 329.408C1076.12 331.429 1076.12 333.45 1076.12 335.471C1076.12 338.306 1076.1 341.141 1076.08 343.976C1076.08 344.798 1076.08 345.621 1076.09 346.469C1075.97 355.95 1073.64 363.71 1066.96 370.553C1060.06 376.535 1053.8 378.231 1044.72 377.826C1036.61 377.056 1029.62 374.771 1023.94 368.678C1018.25 361.428 1016.22 355.261 1016.29 346.168C1016.28 345.255 1016.28 344.341 1016.27 343.4C1016.26 340.394 1016.27 337.388 1016.28 334.381C1016.27 332.274 1016.27 330.168 1016.27 328.062C1016.26 323.647 1016.27 319.232 1016.28 314.817C1016.3 309.197 1016.29 303.577 1016.27 297.957C1016.26 293.604 1016.27 289.25 1016.27 284.897C1016.28 282.827 1016.27 280.758 1016.27 278.688C1016.23 266.912 1016.73 255.98 1019.67 244.537C1019.87 243.777 1020.06 243.017 1020.26 242.234C1027.93 214.167 1047.65 192.179 1072.36 177.662C1099.24 163.71 1136.56 160.677 1163.67 175.537Z" fill="url(#paint6_linear_3_146)"/>
<path d="M764.83 234.791C774.91 242.736 781.613 251.996 784.264 264.709C785.199 273.618 785.056 282.472 781.264 290.709C780.985 291.442 780.707 292.174 780.42 292.928C776.704 302.283 770.705 309.302 762.264 314.709C761.541 315.173 760.817 315.637 760.072 316.116C748.913 322.792 734.478 323.671 721.869 320.987C716.208 319.031 711.14 316.165 706.264 312.709C705.398 312.111 704.531 311.513 703.639 310.897C693.896 301.923 688.03 289.947 687.049 276.838C686.584 262.524 691.176 249.966 700.951 239.397C718.831 222.828 744.683 220.752 764.83 234.791Z" fill="#FDFDFD"/>
<path d="M916.627 232.163C919.138 233.838 921.442 235.603 923.744 237.554C924.462 238.161 925.18 238.768 925.92 239.394C934.289 247.101 939.502 257.231 940.045 268.667C940.064 270.067 940.068 271.467 940.056 272.867C940.051 273.608 940.045 274.349 940.039 275.113C939.742 288.658 934.362 299.472 925.213 309.378C915.38 318.044 904.326 321.958 891.369 321.867C890.531 321.861 889.693 321.855 888.83 321.85C876.456 321.607 866.509 317.345 857.494 308.742C848.563 299.2 842.614 287.844 842.181 274.554C842.694 262.518 846.177 252.866 853.744 243.554C854.507 242.502 855.27 241.45 856.056 240.367C872.263 223.406 896.476 220.914 916.627 232.163Z" fill="#FDFDFD"/>
<path d="M1384.67 225.537C1385.45 225.843 1386.22 226.148 1387.02 226.463C1392.46 228.832 1396.69 232.012 1401.05 235.975C1401.55 236.429 1402.05 236.883 1402.56 237.352C1405.83 240.445 1408.42 243.646 1410.67 247.537C1410.67 248.527 1410.67 249.517 1410.67 250.537C1380.97 250.537 1351.27 250.537 1320.67 250.537C1324.46 239.192 1332.19 231.986 1342.67 226.537C1354.91 221.002 1372.38 219.918 1384.67 225.537Z" fill="#FCFCFC"/>
</g>
<defs>
<linearGradient id="paint0_linear_3_146" x1="891.665" y1="165.709" x2="891.665" y2="380.822" gradientUnits="userSpaceOnUse">
<stop stop-color="#001B2F"/>
<stop offset="1" stop-color="#05416F"/>
</linearGradient>
<linearGradient id="paint1_linear_3_146" x1="735.725" y1="165.883" x2="735.725" y2="381.379" gradientUnits="userSpaceOnUse">
<stop stop-color="#001B2F"/>
<stop offset="1" stop-color="#05416F"/>
</linearGradient>
<linearGradient id="paint2_linear_3_146" x1="210.434" y1="89" x2="210.434" y2="381.281" gradientUnits="userSpaceOnUse">
<stop stop-color="#12C6BE"/>
<stop offset="0.46" stop-color="#0DA9B1"/>
<stop offset="1" stop-color="#0888A1"/>
</linearGradient>
<linearGradient id="paint3_linear_3_146" x1="473.785" y1="166.323" x2="473.785" y2="378.289" gradientUnits="userSpaceOnUse">
<stop stop-color="#001B2F"/>
<stop offset="1" stop-color="#05416F"/>
</linearGradient>
<linearGradient id="paint4_linear_3_146" x1="1364.46" y1="165.978" x2="1364.46" y2="381.568" gradientUnits="userSpaceOnUse">
<stop stop-color="#001B2F"/>
<stop offset="1" stop-color="#05416F"/>
</linearGradient>
<linearGradient id="paint5_linear_3_146" x1="1600.7" y1="165.931" x2="1600.7" y2="453.697" gradientUnits="userSpaceOnUse">
<stop stop-color="#001B2F"/>
<stop offset="1" stop-color="#05416F"/>
</linearGradient>
<linearGradient id="paint6_linear_3_146" x1="1122.22" y1="165.709" x2="1122.22" y2="377.885" gradientUnits="userSpaceOnUse">
<stop stop-color="#001B2F"/>
<stop offset="1" stop-color="#05416F"/>
</linearGradient>
</defs>
</svg>
