<svg width="16" height="16" viewBox="0 0 16 16" fill="none" xmlns="http://www.w3.org/2000/svg">
<mask id="mask0_3_131" style="mask-type:luminance" maskUnits="userSpaceOnUse" x="0" y="0" width="16" height="16">
<path d="M16 0H0V16H16V0Z" fill="white"/>
</mask>
<g mask="url(#mask0_3_131)">
<mask id="mask1_3_131" style="mask-type:alpha" maskUnits="userSpaceOnUse" x="0" y="-1" width="16" height="18">
<path d="M3.28003 0.00801987C3.32003 0.00801987 3.36991 0.00704331 3.40991 0.00704331C3.51991 0.00704331 3.64001 0.00704331 3.76001 0.00704331C3.88001 0.00704331 4.00988 0.00700571 4.12988 0.00600571C4.36988 0.00600571 4.62011 0.00600571 4.86011 0.00600571C5.06011 0.00600571 5.25996 0.00502915 5.45996 0.00502915C6.01996 0.00502915 6.5899 0.00405259 7.1499 0.00405259C7.1999 0.00405259 7.2 0.00402915 7.25 0.00502915C7.28 0.00502915 7.31009 0.00502915 7.34009 0.00502915C7.83009 0.00502915 8.32007 0.00401499 8.82007 0.00301499C9.32007 0.00201499 9.83009 0.00203843 10.3401 0.00203843C10.6201 0.00203843 10.9099 0.00200083 11.1899 0.00100083C11.4299 8.27946e-07 11.6799 8.27946e-07 11.9199 0.00100083C12.0399 0.00100083 12.16 0.00102427 12.29 2.42655e-05C12.87 -0.00197573 13.44 0.0010145 13.98 0.240014C14.01 0.254014 14.01 0.25403 14.05 0.26803C14.81 0.60803 15.45 1.24302 15.76 2.02102C15.92 2.43902 15.99 2.83401 15.99 3.28201C15.99 3.32501 15.99 3.36702 15.99 3.40902C15.99 3.52502 15.99 3.64001 15.99 3.75601C15.99 3.88101 15.99 4.00601 15.99 4.13101C15.99 4.37501 15.99 4.61904 15.99 4.86404C15.99 5.06304 15.99 5.26105 15.99 5.46005C16 6.02505 16 6.59002 16 7.15402C16 7.20002 16 7.2 16 7.246C16 7.277 16 7.30701 16 7.33901C16 7.83101 16 8.32404 16 8.81704C16 9.32404 16 9.83104 16 10.338C16 10.622 16 10.907 16 11.191C16 11.433 16 11.675 16 11.917C16 12.041 16 12.164 16 12.287C16 12.87 16 13.436 15.76 13.98C15.75 14.002 15.74 14.023 15.73 14.045C15.39 14.811 14.76 15.446 13.98 15.764C13.56 15.922 13.17 15.993 12.72 15.992C12.68 15.992 12.6301 15.993 12.5901 15.993C12.4801 15.993 12.36 15.993 12.24 15.993C12.12 15.993 11.9901 15.993 11.8701 15.994C11.6301 15.994 11.3799 15.994 11.1399 15.994C10.9399 15.994 10.74 15.995 10.54 15.995C9.98004 15.995 9.4101 15.996 8.8501 15.996C8.8201 15.995 8.79 15.995 8.75 15.995C8.72 15.995 8.68991 15.995 8.65991 15.995C8.16991 15.995 7.67993 15.996 7.17993 15.997C6.67993 15.998 6.16991 15.998 5.65991 15.998C5.37991 15.998 5.09006 15.998 4.81006 15.999C4.57006 16 4.32008 16 4.08008 15.999C3.96008 15.999 3.83996 15.999 3.70996 16C3.12996 16.002 2.56002 15.999 2.02002 15.76C2.00002 15.751 1.97995 15.741 1.94995 15.732C1.18995 15.392 0.54999 14.757 0.23999 13.979C0.0799902 13.561 0.0100098 13.166 0.0100098 12.718C0.0100098 12.675 0.0100098 12.633 0.0100098 12.591C0.0100098 12.475 0.0100098 12.36 0.0100098 12.244C0.0100098 12.119 0.0100098 11.994 0.0100098 11.869C0.0100098 11.625 0.0100098 11.381 0.0100098 11.136C0.0100098 10.937 0.0100098 10.739 0.0100098 10.54C9.76585e-06 9.975 0 9.41003 0 8.84603C0 8.81503 0 8.78505 0 8.75405C0 8.72305 0 8.69303 0 8.66103C0 8.16903 0 7.67601 0 7.18301C0 6.67601 0 6.16901 0 5.66201C0 5.37801 0 5.09305 0 4.80905C0 4.56705 0 4.32503 0 4.08303C0 3.95903 0 3.83604 0 3.71304C0 3.13004 -9.76026e-06 2.56404 0.23999 2.02004C0.24999 1.99804 0.26002 1.97704 0.27002 1.95504C0.61002 1.18904 1.24002 0.554047 2.02002 0.236047C2.44002 0.0780472 2.83003 0.00701987 3.28003 0.00801987Z" fill="white"/>
</mask>
<g mask="url(#mask1_3_131)">
<path d="M582 -87H-120V580H582V-87Z" fill="white"/>
</g>
<mask id="mask2_3_131" style="mask-type:luminance" maskUnits="userSpaceOnUse" x="1" y="6" width="14" height="4">
<path d="M15 6H1V9.19375H15V6Z" fill="white"/>
</mask>
<g mask="url(#mask2_3_131)">
<path d="M8.47992 6.90304C8.67992 7.07704 8.79 7.31403 8.81 7.57803C8.82 7.82903 8.74002 8.04605 8.58002 8.23605C8.57002 8.24305 8.56 8.25002 8.56 8.25802C8.42 8.42702 8.17991 8.52504 7.96991 8.54904C7.71991 8.57104 7.48998 8.508 7.28998 8.35C7.09998 8.186 6.96988 7.974 6.93988 7.72C6.92988 7.577 6.93992 7.44405 6.97992 7.30905C6.98992 7.29905 6.98993 7.28902 6.98993 7.27902C7.03993 7.16702 7.09987 7.07101 7.17987 6.98501C7.18987 6.97601 7.19989 6.96703 7.19989 6.95803C7.26989 6.89003 7.33986 6.83902 7.41986 6.79202C7.42986 6.78602 7.43989 6.78105 7.44989 6.77505C7.77989 6.58805 8.19992 6.66804 8.47992 6.90304Z" fill="url(#paint0_linear_3_131)"/>
<path d="M7.13989 6.91603C7.29989 7.06003 7.41994 7.27604 7.43994 7.49404C7.45994 7.80104 7.38993 8.03804 7.17993 8.27004C7.11993 8.33504 7.04998 8.38301 6.97998 8.43001C6.96998 8.43501 6.95995 8.44002 6.94995 8.44502C6.75995 8.55802 6.49003 8.58602 6.28003 8.53102C6.03003 8.46102 5.81994 8.30203 5.68994 8.08003C5.60994 7.93003 5.58008 7.77502 5.58008 7.60402C5.58008 7.59302 5.58008 7.58304 5.58008 7.57204C5.58008 7.31604 5.69988 7.09901 5.87988 6.92201C5.92988 6.87001 5.99006 6.83102 6.06006 6.79402C6.07006 6.78802 6.08009 6.78202 6.09009 6.77602C6.43009 6.58302 6.84989 6.67803 7.13989 6.91603Z" fill="url(#paint1_linear_3_131)"/>
<path d="M2.40997 6.10399C2.52997 6.16899 2.66002 6.26697 2.72002 6.39897C2.74002 6.46997 2.72 6.52797 2.69 6.59197C2.65 6.64397 2.61009 6.68201 2.54009 6.69701C2.42009 6.71401 2.34004 6.66301 2.24004 6.59801C2.11004 6.51301 1.95009 6.49297 1.79009 6.52397C1.71009 6.54397 1.64015 6.58398 1.60015 6.65398C1.57015 6.71198 1.56013 6.77197 1.58013 6.83397C1.60013 6.88497 1.62999 6.917 1.67999 6.942C1.67999 6.946 1.69001 6.94997 1.70001 6.95397C1.79001 6.99697 1.89004 7.01202 1.99004 7.03002C2.26004 7.07902 2.56002 7.16396 2.72002 7.40196C2.83002 7.57096 2.85011 7.76196 2.81011 7.95696C2.76011 8.13696 2.62002 8.29401 2.47002 8.39501C2.46002 8.40101 2.46001 8.40699 2.45001 8.41399C2.21001 8.55999 1.91996 8.58899 1.64996 8.52599C1.63996 8.52499 1.63994 8.52296 1.62994 8.52196C1.39994 8.46796 1.18011 8.31701 1.06011 8.11601C1.01011 8.03001 0.990054 7.96001 1.00005 7.86101C1.01005 7.83401 1.02009 7.814 1.04009 7.791C1.05009 7.777 1.05011 7.77699 1.06011 7.76299C1.11011 7.71199 1.17004 7.678 1.24004 7.674C1.34004 7.678 1.41002 7.73901 1.47002 7.80901C1.50002 7.83101 1.52009 7.85396 1.54009 7.87596C1.63009 7.97896 1.74994 8.02901 1.87994 8.03801C1.99994 8.04301 2.12002 8.02196 2.22002 7.95696C2.23002 7.94996 2.23003 7.94998 2.23003 7.94298C2.24003 7.93098 2.24006 7.93102 2.26006 7.93102C2.27006 7.92002 2.27008 7.90798 2.28008 7.89598C2.28008 7.88698 2.29009 7.878 2.29009 7.869C2.32009 7.818 2.3101 7.76201 2.3001 7.71001C2.2801 7.66201 2.24 7.63501 2.19 7.61101C2.18 7.60601 2.16997 7.60299 2.15997 7.59899C2.14997 7.59499 2.14994 7.59501 2.12994 7.59001C2.05994 7.56801 1.98998 7.55698 1.91998 7.54698C1.85998 7.53898 1.80005 7.52697 1.75005 7.51097C1.73005 7.50797 1.73002 7.50799 1.72002 7.50499C1.70002 7.49799 1.66996 7.49197 1.64996 7.48497C1.63996 7.48297 1.63994 7.48197 1.62994 7.47997C1.42994 7.42097 1.23994 7.29599 1.12994 7.11699C1.04994 6.95699 1.02012 6.75301 1.07012 6.57701C1.11012 6.47601 1.15002 6.384 1.22002 6.304C1.23002 6.297 1.23004 6.29001 1.24004 6.28301C1.27004 6.24701 1.27008 6.247 1.28008 6.234C1.29008 6.234 1.2901 6.234 1.3001 6.234C1.3001 6.228 1.3001 6.22199 1.3001 6.21599C1.4301 6.10099 1.60007 6.02496 1.77007 6.00896C1.99007 5.98596 2.19997 6.00199 2.40997 6.10399Z" fill="url(#paint2_linear_3_131)"/>
<path d="M4.19995 6.82896C4.21995 6.81496 4.25002 6.79896 4.27002 6.78196C4.44002 6.67596 4.64008 6.65496 4.83008 6.69596C5.01008 6.74696 5.17002 6.88797 5.27002 7.04997C5.35002 7.20297 5.36011 7.35696 5.36011 7.52696C5.36011 7.54996 5.36011 7.57195 5.36011 7.59495C5.36011 7.64195 5.36011 7.68796 5.36011 7.73496C5.36011 7.78896 5.36011 7.84295 5.36011 7.89695C5.36011 7.94895 5.36011 8.002 5.36011 8.054C5.36011 8.076 5.36011 8.09797 5.36011 8.11997C5.36011 8.15097 5.36011 8.18199 5.36011 8.21299C5.36011 8.22199 5.36011 8.23097 5.36011 8.23997C5.36011 8.32297 5.33002 8.40895 5.27002 8.46995C5.20002 8.52495 5.14005 8.53501 5.05005 8.53001C4.98005 8.52301 4.92988 8.48101 4.87988 8.42601C4.83988 8.36501 4.84009 8.308 4.84009 8.236C4.84009 8.227 4.84009 8.21695 4.84009 8.20695C4.84009 8.18695 4.84009 8.166 4.84009 8.145C4.84009 8.113 4.84009 8.07998 4.84009 8.04698C4.84009 7.95998 4.84009 7.87299 4.84009 7.78599C4.84009 7.72399 4.84009 7.661 4.84009 7.598C4.84009 7.577 4.84009 7.555 4.84009 7.533C4.84009 7.503 4.84009 7.473 4.84009 7.442C4.84009 7.434 4.84009 7.425 4.84009 7.416C4.84009 7.346 4.82002 7.30298 4.77002 7.25498C4.72002 7.22098 4.67011 7.20797 4.61011 7.21397C4.55011 7.23097 4.51999 7.257 4.48999 7.304C4.46999 7.352 4.46997 7.39795 4.46997 7.44895C4.46997 7.47195 4.46997 7.49401 4.46997 7.51701C4.46997 7.55201 4.46997 7.58797 4.46997 7.62297C4.46997 7.65697 4.46997 7.69199 4.46997 7.72599C4.46997 7.73599 4.46997 7.74698 4.46997 7.75798C4.46997 7.83798 4.4499 7.89597 4.3999 7.95597C4.3899 7.96197 4.38988 7.96896 4.37988 7.97496C4.36988 7.98096 4.37011 7.98696 4.36011 7.99296C4.30011 8.03696 4.23991 8.04499 4.15991 8.03599C4.08991 8.01799 4.04 7.97601 4 7.91801C3.96 7.85001 3.94995 7.79595 3.94995 7.71995C3.94995 7.70895 3.94995 7.69897 3.94995 7.68797C3.94995 7.65397 3.94995 7.62099 3.94995 7.58799C3.94995 7.55399 3.94995 7.52098 3.94995 7.48698C3.94995 7.46598 3.94995 7.44597 3.94995 7.42497C3.94995 7.35497 3.9399 7.31098 3.8999 7.25498C3.8499 7.21898 3.79999 7.20898 3.73999 7.21098C3.69999 7.21698 3.65988 7.23698 3.62988 7.27098C3.62988 7.27798 3.62012 7.28497 3.62012 7.29197C3.61012 7.30097 3.6101 7.30995 3.6001 7.31895C3.6001 7.33795 3.6001 7.33799 3.6001 7.35899C3.6001 7.37099 3.6001 7.37095 3.6001 7.38395C3.6001 7.39295 3.6001 7.40199 3.6001 7.41099C3.6001 7.42499 3.6001 7.42498 3.6001 7.43998C3.6001 7.45998 3.6001 7.48099 3.6001 7.50199C3.6001 7.53399 3.6001 7.56696 3.6001 7.59996C3.6001 7.69296 3.6001 7.78601 3.6001 7.87901C3.6001 7.93601 3.6001 7.99297 3.6001 8.04997C3.6001 8.07197 3.6001 8.09297 3.6001 8.11497C3.6001 8.14497 3.6001 8.17597 3.6001 8.20597C3.6001 8.21497 3.6001 8.22395 3.6001 8.23295C3.6001 8.32895 3.57 8.404 3.5 8.473C3.44 8.528 3.38005 8.53401 3.30005 8.53001C3.24005 8.52501 3.1999 8.50597 3.1499 8.46397C3.0899 8.39097 3.08008 8.33096 3.08008 8.23796C3.08008 8.22796 3.08008 8.21795 3.08008 8.20695C3.08008 8.17895 3.08008 8.15099 3.08008 8.12199C3.08008 8.09899 3.08008 8.07501 3.08008 8.05101C3.08008 7.99501 3.08008 7.93898 3.08008 7.88298C3.08008 7.82498 3.08008 7.768 3.08008 7.71C3.08008 7.661 3.08008 7.61099 3.08008 7.56199C3.08008 7.53199 3.08008 7.503 3.08008 7.473C3.08008 7.226 3.12005 7.04698 3.30005 6.86698C3.55005 6.61498 3.91995 6.62596 4.19995 6.82896Z" fill="url(#paint3_linear_3_131)"/>
<path d="M12.57 6.86403C12.75 7.00103 12.8699 7.17304 12.9199 7.38704C12.9299 7.39704 12.9299 7.40604 12.9299 7.41604C12.9499 7.50904 12.9699 7.626 12.9299 7.717C12.8899 7.782 12.85 7.81599 12.77 7.83699C12.73 7.84699 12.6799 7.84603 12.6399 7.84603C12.6199 7.84603 12.6201 7.84603 12.6001 7.84603C12.5801 7.84603 12.55 7.847 12.52 7.847C12.49 7.847 12.4599 7.847 12.4199 7.847C12.3699 7.848 12.31 7.84804 12.25 7.84804C12.18 7.84804 12.12 7.84902 12.05 7.84902C11.92 7.85002 11.7799 7.85003 11.6499 7.85103C11.6599 7.86403 11.6599 7.876 11.6699 7.889C11.6799 7.896 11.6899 7.90299 11.6899 7.90999C11.7599 7.99099 11.8599 8.04304 11.9599 8.05404C11.9799 8.05504 12 8.05605 12.02 8.05605C12.02 8.05605 12.03 8.05501 12.04 8.05501C12.11 8.05401 12.17 8.02701 12.24 7.99001C12.3 7.96501 12.3699 7.96604 12.4299 7.97304C12.5099 8.00304 12.5601 8.05304 12.5901 8.12404C12.6201 8.18904 12.6201 8.25104 12.5901 8.31704C12.5501 8.41904 12.4601 8.46704 12.3601 8.50704C12.1201 8.59404 11.8301 8.57001 11.6001 8.46401C11.5301 8.42801 11.4599 8.38699 11.3999 8.33199C11.3899 8.32699 11.3899 8.321 11.3799 8.316C11.2199 8.18 11.09 7.96302 11.07 7.75002C11.05 7.45302 11.11 7.20503 11.31 6.97603C11.4 6.88703 11.5001 6.81004 11.6101 6.75704C11.6201 6.75304 11.6299 6.74999 11.6399 6.74599C11.9399 6.61399 12.31 6.66803 12.57 6.86403Z" fill="url(#paint4_linear_3_131)"/>
<path d="M13.56 6.71396C13.63 6.76096 13.6599 6.81097 13.6799 6.88797C13.6899 6.91597 13.6899 6.94298 13.6899 6.97098C13.6899 6.97898 13.6899 6.98697 13.6899 6.99497C13.6899 7.01197 13.6899 7.02899 13.6899 7.04599C13.6899 7.07299 13.6899 7.09999 13.6899 7.12699C13.6899 7.18399 13.6899 7.24099 13.6899 7.29899C13.6899 7.36499 13.6899 7.43098 13.6899 7.49698C13.6899 7.52398 13.6899 7.55 13.6899 7.577C13.6899 7.72 13.71 7.82699 13.81 7.93699C13.9 8.02199 14.0101 8.02999 14.1201 8.02799C14.2101 8.02499 14.29 7.98497 14.36 7.92197C14.39 7.88397 14.4199 7.84595 14.4399 7.79795C14.4399 7.79195 14.4399 7.78499 14.4499 7.77799C14.4799 7.69799 14.4799 7.61897 14.4799 7.53397C14.4799 7.50697 14.4799 7.47995 14.4799 7.45395C14.4799 7.40695 14.4799 7.35996 14.4799 7.31296C14.4799 7.23796 14.4799 7.16295 14.4799 7.08695C14.4799 7.06095 14.4799 7.03495 14.4799 7.00895C14.4799 6.99295 14.4799 6.97697 14.4799 6.96097C14.4799 6.95297 14.4799 6.946 14.4799 6.939C14.4799 6.856 14.51 6.802 14.56 6.741C14.63 6.686 14.69 6.67396 14.77 6.67496C14.85 6.68296 14.8999 6.72498 14.9499 6.78098C14.9899 6.83698 14.9899 6.88096 14.9899 6.94596C14.9899 6.95796 14.9899 6.95798 14.9899 6.97098C14.9899 6.99798 14.9899 7.02498 14.9899 7.05198C14.9899 7.07098 14.9899 7.08998 14.9899 7.10898C14.9899 7.14798 14.9899 7.188 14.9899 7.228C14.9899 7.278 14.9899 7.329 14.9899 7.379C14.9899 7.418 14.9899 7.45698 14.9899 7.49698C14.9899 7.51498 14.9899 7.53398 14.9899 7.55198C14.9899 7.84498 14.9299 8.07996 14.7199 8.29496C14.6599 8.35196 14.59 8.39499 14.52 8.43699C14.51 8.44499 14.5099 8.44498 14.4999 8.45298C14.4599 8.47598 14.4198 8.49197 14.3798 8.50297C14.3698 8.50597 14.36 8.50796 14.35 8.51096C14.35 8.51096 14.34 8.51397 14.33 8.51597C14.33 8.52197 14.33 8.52699 14.33 8.53299C14.33 8.59299 14.33 8.65299 14.33 8.71299C14.33 8.73499 14.33 8.758 14.33 8.78C14.34 8.812 14.34 8.84395 14.34 8.87595C14.34 8.88595 14.34 8.89598 14.34 8.90598C14.34 8.99598 14.3099 9.06596 14.2499 9.13096C14.1899 9.18396 14.13 9.19195 14.06 9.19095C13.98 9.18695 13.9298 9.15999 13.8798 9.10599C13.8198 9.03299 13.81 8.95196 13.81 8.85996C13.81 8.84996 13.81 8.83995 13.81 8.82895C13.81 8.79695 13.81 8.76495 13.81 8.73295C13.81 8.71095 13.81 8.68897 13.81 8.66697C13.81 8.61397 13.81 8.56099 13.82 8.50699C13.81 8.50599 13.81 8.505 13.8 8.504C13.79 8.502 13.79 8.501 13.78 8.499C13.77 8.498 13.76 8.49497 13.76 8.49497C13.73 8.48697 13.6999 8.47396 13.6699 8.45896C13.6699 8.45396 13.6699 8.45399 13.6599 8.44999C13.4499 8.33299 13.2799 8.14999 13.2099 7.91599C13.1799 7.80799 13.1699 7.69996 13.1699 7.58896C13.1699 7.58196 13.1699 7.57399 13.1699 7.56699C13.1699 7.54199 13.1699 7.51799 13.1699 7.49399C13.1699 7.48599 13.1699 7.47697 13.1699 7.46897C13.1699 7.42497 13.1699 7.38095 13.1699 7.33695C13.1699 7.29195 13.1699 7.24696 13.1699 7.20096C13.1699 7.16596 13.1699 7.13196 13.1699 7.09696C13.1699 7.07996 13.1699 7.06297 13.1699 7.04697C13.1599 6.91997 13.17 6.82898 13.26 6.73398C13.35 6.65598 13.46 6.65696 13.56 6.71396Z" fill="url(#paint5_linear_3_131)"/>
<path d="M10.25 6.75699C10.26 6.76199 10.27 6.76597 10.28 6.77097C10.36 6.80497 10.42 6.84595 10.48 6.89695C10.49 6.90395 10.5 6.90997 10.51 6.91697C10.67 7.05997 10.7801 7.25795 10.8101 7.47495C10.8201 7.50195 10.8201 7.52998 10.8201 7.55698C10.8201 7.56498 10.8201 7.57394 10.8201 7.58194C10.8201 7.60894 10.8201 7.63598 10.8201 7.66398C10.8201 7.67298 10.8201 7.68199 10.8201 7.69199C10.8201 7.74099 10.8201 7.791 10.8201 7.84C10.8201 7.891 10.8201 7.94195 10.8201 7.99295C10.8201 8.03195 10.8201 8.07096 10.8201 8.10996C10.8201 8.12896 10.8201 8.14799 10.8201 8.16599C10.8201 8.19299 10.8201 8.21897 10.8201 8.24497C10.8201 8.25697 10.8201 8.25698 10.8201 8.26798C10.8201 8.34598 10.79 8.409 10.74 8.465C10.68 8.517 10.62 8.53095 10.54 8.52695C10.46 8.51895 10.4101 8.48597 10.3501 8.42197C10.3101 8.36897 10.3 8.32396 10.3 8.26096C10.3 8.25296 10.3 8.24497 10.3 8.23697C10.3 8.22097 10.3 8.20399 10.3 8.18699C10.3 8.15999 10.3 8.13397 10.3 8.10697C10.3 8.03097 10.3 7.955 10.3 7.879C10.3 7.833 10.3 7.78596 10.3 7.73996C10.3 7.72196 10.3 7.70499 10.3 7.68699C10.3 7.58999 10.3 7.50797 10.25 7.42197C10.25 7.41497 10.25 7.407 10.24 7.4C10.21 7.351 10.1799 7.31596 10.1299 7.28196C10.1299 7.27796 10.1201 7.27399 10.1201 7.26999C10.0201 7.20499 9.90004 7.18898 9.79004 7.20298C9.68004 7.22898 9.61005 7.28696 9.55005 7.37796C9.54005 7.38396 9.54004 7.38896 9.54004 7.39396C9.50004 7.45496 9.48999 7.51197 9.48999 7.58097C9.48999 7.59297 9.48999 7.59295 9.48999 7.60495C9.48999 7.62195 9.48999 7.639 9.48999 7.655C9.48999 7.682 9.48999 7.709 9.48999 7.736C9.48999 7.812 9.48999 7.88796 9.48999 7.96396C9.48999 8.00996 9.48999 8.05698 9.48999 8.10398C9.48999 8.12098 9.48999 8.13896 9.48999 8.15696C9.48999 8.18096 9.48999 8.20599 9.48999 8.23099C9.48999 8.23799 9.48999 8.24496 9.48999 8.25296C9.48999 8.33596 9.46991 8.40396 9.40991 8.46396C9.34991 8.51596 9.28996 8.53095 9.20996 8.52695C9.13996 8.51995 9.08003 8.5 9.03003 8.447C8.98003 8.384 8.95997 8.32997 8.96997 8.24997C8.95997 8.24197 8.95996 8.23399 8.95996 8.22599C8.95996 8.19999 8.95996 8.17295 8.95996 8.14695C8.95996 8.12895 8.95996 8.10995 8.95996 8.09195C8.95996 8.05295 8.95997 8.01399 8.96997 7.97599C8.96997 7.92699 8.96996 7.87698 8.95996 7.82798C8.95996 7.78998 8.95996 7.75196 8.95996 7.71396C8.95996 7.69596 8.95996 7.67795 8.95996 7.65995C8.95996 7.55695 8.96999 7.461 8.98999 7.361C8.99999 7.354 9 7.34798 9 7.34098C9.07 7.09498 9.23996 6.90297 9.45996 6.77597C9.68996 6.65397 10.02 6.62699 10.25 6.75699Z" fill="url(#paint6_linear_3_131)"/>
<path d="M6.76001 7.27602C6.85001 7.34502 6.90993 7.42601 6.92993 7.53701C6.93993 7.61501 6.93991 7.69303 6.90991 7.76503C6.90991 7.77103 6.8999 7.77802 6.8999 7.78402C6.8699 7.86602 6.81999 7.92799 6.73999 7.97499C6.73999 7.97899 6.72997 7.98302 6.71997 7.98702C6.62997 8.04602 6.49989 8.05305 6.38989 8.03005C6.33989 8.01305 6.3 7.98799 6.25 7.95699C6.24 7.95199 6.23998 7.947 6.22998 7.941C6.13998 7.863 6.09008 7.75802 6.08008 7.64302C6.08008 7.51802 6.11996 7.408 6.20996 7.316C6.35996 7.171 6.59001 7.15302 6.76001 7.27602Z" fill="#FDFDFD"/>
<path d="M8.09009 7.25298C8.11009 7.26698 8.12991 7.28298 8.15991 7.29998C8.15991 7.30498 8.16992 7.30997 8.16992 7.31597C8.24992 7.38297 8.29005 7.47201 8.30005 7.57201C8.30005 7.58401 8.30005 7.597 8.30005 7.609C8.30005 7.615 8.30005 7.62198 8.30005 7.62798C8.30005 7.74698 8.24992 7.84197 8.16992 7.92797C8.07992 8.00397 7.99012 8.03802 7.87012 8.03802C7.86012 8.03702 7.8601 8.03698 7.8501 8.03698C7.7401 8.03498 7.65008 7.99797 7.58008 7.92297C7.50008 7.83897 7.44994 7.74002 7.43994 7.62402C7.44994 7.51802 7.48004 7.43398 7.54004 7.35198C7.55004 7.34298 7.56006 7.33397 7.56006 7.32397C7.70006 7.17597 7.92009 7.15398 8.09009 7.25298Z" fill="#FDFDFD"/>
<path d="M12.1899 7.19499C12.1899 7.19699 12.2 7.19998 12.21 7.20298C12.26 7.22298 12.2901 7.25099 12.3301 7.28599C12.3401 7.28999 12.3401 7.29395 12.3401 7.29795C12.3701 7.32495 12.3999 7.353 12.4199 7.387C12.4199 7.396 12.4199 7.404 12.4199 7.413C12.1599 7.413 11.8999 7.413 11.6299 7.413C11.6599 7.314 11.7301 7.25098 11.8201 7.20298C11.9301 7.15498 12.0799 7.14499 12.1899 7.19499Z" fill="#FCFCFC"/>
</g>
</g>
<defs>
<linearGradient id="paint0_linear_3_131" x1="7.86994" y1="6.67105" x2="7.86994" y2="8.55304" gradientUnits="userSpaceOnUse">
<stop stop-color="#001B2F"/>
<stop offset="1" stop-color="#05416F"/>
</linearGradient>
<linearGradient id="paint1_linear_3_131" x1="6.51001" y1="6.67302" x2="6.51001" y2="8.55802" gradientUnits="userSpaceOnUse">
<stop stop-color="#001B2F"/>
<stop offset="1" stop-color="#05416F"/>
</linearGradient>
<linearGradient id="paint2_linear_3_131" x1="1.91008" y1="5.99996" x2="1.91008" y2="8.55699" gradientUnits="userSpaceOnUse">
<stop stop-color="#12C6BE"/>
<stop offset="0.46" stop-color="#0DA9B1"/>
<stop offset="1" stop-color="#0888A1"/>
</linearGradient>
<linearGradient id="paint3_linear_3_131" x1="4.22009" y1="6.67696" x2="4.22009" y2="8.53101" gradientUnits="userSpaceOnUse">
<stop stop-color="#001B2F"/>
<stop offset="1" stop-color="#05416F"/>
</linearGradient>
<linearGradient id="paint4_linear_3_131" x1="12.01" y1="6.674" x2="12.01" y2="8.56003" gradientUnits="userSpaceOnUse">
<stop stop-color="#001B2F"/>
<stop offset="1" stop-color="#05416F"/>
</linearGradient>
<linearGradient id="paint5_linear_3_131" x1="14.0799" y1="6.67297" x2="14.0799" y2="9.19095" gradientUnits="userSpaceOnUse">
<stop stop-color="#001B2F"/>
<stop offset="1" stop-color="#05416F"/>
</linearGradient>
<linearGradient id="paint6_linear_3_131" x1="9.89001" y1="6.67099" x2="9.89001" y2="8.52795" gradientUnits="userSpaceOnUse">
<stop stop-color="#001B2F"/>
<stop offset="1" stop-color="#05416F"/>
</linearGradient>
</defs>
</svg>
