<svg width="32" height="32" viewBox="0 0 32 32" fill="none" xmlns="http://www.w3.org/2000/svg">
<mask id="mask0_3_108" style="mask-type:luminance" maskUnits="userSpaceOnUse" x="0" y="0" width="32" height="32">
<path d="M32 0H0V32H32V0Z" fill="white"/>
</mask>
<g mask="url(#mask0_3_108)">
<mask id="mask1_3_108" style="mask-type:alpha" maskUnits="userSpaceOnUse" x="-1" y="-1" width="33" height="33">
<path d="M6.53005 -0.0170413C6.62005 -0.0170413 6.70006 -0.0170179 6.79006 -0.0180179C7.02006 -0.0180179 7.25 -0.0180179 7.48 -0.0180179C7.73 -0.0180179 7.98 -0.0189944 8.23 -0.0189944C8.72 -0.0209944 9.20997 -0.0210086 9.69997 -0.0210086C10.09 -0.0210086 10.4899 -0.0209852 10.8899 -0.0219852C12.0199 -0.0229852 13.1501 -0.0230228 14.2801 -0.0230228C14.3701 -0.0230228 14.37 -0.0230228 14.46 -0.0230228C14.52 -0.0230228 14.5799 -0.0230228 14.6399 -0.0230228C15.6299 -0.0230228 16.6201 -0.0240135 17.6001 -0.0260135C18.6201 -0.0280135 19.6299 -0.0290042 20.6399 -0.0290042C21.2099 -0.0290042 21.7801 -0.0290418 22.3501 -0.0300418C22.8301 -0.0310418 23.3201 -0.0320184 23.8001 -0.0310184C24.0501 -0.0300184 24.3001 -0.0299949 24.5401 -0.0319949C25.7101 -0.0359949 26.84 -0.0300145 27.93 0.447986C27.99 0.475986 27.9901 0.476016 28.0601 0.504016C29.5901 1.18502 30.86 2.455 31.49 4.01C31.81 4.846 31.95 5.63597 31.95 6.53197C31.95 6.61697 31.95 6.702 31.95 6.786C31.95 7.017 31.95 7.24799 31.95 7.47899C31.95 7.72899 31.95 7.97899 31.96 8.22899C31.96 8.71799 31.96 9.20599 31.96 9.69499C31.96 10.093 31.96 10.491 31.96 10.888C31.96 12.017 31.96 13.147 31.96 14.276C31.96 14.367 31.96 14.367 31.96 14.46C31.96 14.521 31.96 14.582 31.96 14.645C31.96 15.631 31.96 16.616 31.96 17.602C31.96 18.616 31.96 19.63 31.96 20.644C31.96 21.213 31.96 21.781 31.97 22.35C31.97 22.834 31.97 23.318 31.97 23.802C31.97 24.049 31.97 24.296 31.97 24.542C31.97 25.709 31.97 26.84 31.49 27.928C31.47 27.971 31.45 28.014 31.43 28.059C30.75 29.589 29.48 30.859 27.93 31.495C27.09 31.811 26.2999 31.955 25.3999 31.952C25.3199 31.953 25.2299 31.953 25.1499 31.953C24.9199 31.954 24.69 31.954 24.46 31.954C24.21 31.954 23.96 31.954 23.71 31.955C23.22 31.956 22.73 31.956 22.24 31.956C21.84 31.957 21.4501 31.957 21.0501 31.957C19.9201 31.958 18.7899 31.959 17.6599 31.959C17.5999 31.959 17.54 31.959 17.48 31.959C17.41 31.959 17.3501 31.959 17.2901 31.959C16.3001 31.959 15.3201 31.96 14.3301 31.962C13.3201 31.963 12.3101 31.964 11.2901 31.964C10.7201 31.964 10.1501 31.964 9.59011 31.966C9.10011 31.967 8.61991 31.967 8.12991 31.966C7.88991 31.966 7.63992 31.966 7.38992 31.967C6.22992 31.972 5.10003 31.965 4.01003 31.487C3.96003 31.469 3.91991 31.45 3.87991 31.431C2.34991 30.751 1.07996 29.481 0.439964 27.926C0.119964 27.089 -0.0199967 26.3 -0.0199967 25.403C-0.0199967 25.318 -0.0199967 25.234 -0.0199967 25.149C-0.0199967 24.918 -0.0199967 24.687 -0.0199967 24.456C-0.0199967 24.206 -0.0199967 23.957 -0.0199967 23.707C-0.0199967 23.218 -0.0199967 22.729 -0.0199967 22.24C-0.0199967 21.843 -0.0199967 21.445 -0.0199967 21.047C-0.0199967 19.918 -0.0199967 18.789 -0.0199967 17.659C-0.0199967 17.599 -0.0199967 17.538 -0.0199967 17.475C-0.0199967 17.414 -0.0199967 17.353 -0.0199967 17.291C-0.0199967 16.305 -0.0200064 15.319 -0.0300064 14.333C-0.0300064 13.319 -0.0300064 12.305 -0.0300064 11.291C-0.0300064 10.723 -0.0300064 10.154 -0.0300064 9.58599C-0.0300064 9.10099 -0.0300064 8.61698 -0.0300064 8.13298C-0.0300064 7.88598 -0.0300064 7.63999 -0.0300064 7.39299C-0.0400064 6.22699 -0.030026 5.09501 0.449974 4.00701C0.469974 3.96401 0.490023 3.921 0.500023 3.877C1.18002 2.346 2.45003 1.07597 4.01003 0.440966C4.85003 0.123966 5.64005 -0.0190413 6.53005 -0.0170413Z" fill="white"/>
</mask>
<g mask="url(#mask1_3_108)">
<path d="M582 -87H-120V580H582V-87Z" fill="white"/>
</g>
<mask id="mask2_3_108" style="mask-type:luminance" maskUnits="userSpaceOnUse" x="3" y="13" width="25" height="6">
<path d="M28 13H3V18.7031H28V13Z" fill="white"/>
</mask>
<g mask="url(#mask2_3_108)">
<path d="M16.3602 14.612C16.7202 14.924 16.9201 15.346 16.9501 15.818C16.9601 16.266 16.8201 16.654 16.5301 16.993C16.5201 17.006 16.5101 17.019 16.5001 17.032C16.2401 17.334 15.8201 17.51 15.4401 17.552C14.9901 17.592 14.5801 17.479 14.2301 17.196C13.8801 16.904 13.6502 16.525 13.6102 16.071C13.5902 15.816 13.6 15.579 13.68 15.337C13.69 15.319 13.6901 15.302 13.7001 15.284C13.7801 15.084 13.9001 14.912 14.0401 14.759C14.0501 14.743 14.0702 14.727 14.0802 14.711C14.1902 14.589 14.3201 14.498 14.4601 14.415C14.4801 14.404 14.5001 14.394 14.5201 14.383C15.1101 14.05 15.8602 14.192 16.3602 14.612Z" fill="url(#paint0_linear_3_108)"/>
<path d="M13.96 14.636C14.25 14.892 14.47 15.278 14.5 15.667C14.53 16.216 14.41 16.639 14.04 17.054C13.93 17.17 13.8099 17.256 13.6799 17.339C13.6599 17.349 13.6499 17.358 13.6299 17.367C13.2799 17.569 12.8099 17.618 12.4299 17.52C11.9799 17.396 11.6099 17.111 11.3799 16.714C11.2299 16.447 11.1699 16.169 11.1699 15.865C11.1699 15.846 11.1699 15.827 11.1699 15.807C11.1699 15.351 11.4 14.962 11.71 14.646C11.81 14.553 11.92 14.485 12.03 14.417C12.05 14.407 12.0701 14.396 12.0901 14.386C12.6901 14.041 13.44 14.211 13.96 14.636Z" fill="url(#paint1_linear_3_108)"/>
<path d="M5.51992 13.186C5.73992 13.301 5.96997 13.478 6.06997 13.713C6.09997 13.84 6.07992 13.944 6.01992 14.058C5.94992 14.15 5.8699 14.218 5.7499 14.245C5.5299 14.276 5.39987 14.183 5.21987 14.068C4.97987 13.915 4.68981 13.88 4.40981 13.935C4.26981 13.972 4.13997 14.042 4.06997 14.167C4.01997 14.271 3.99993 14.379 4.02993 14.489C4.06993 14.581 4.11986 14.637 4.20986 14.683C4.21986 14.689 4.2299 14.696 4.2499 14.703C4.4099 14.78 4.59993 14.806 4.77993 14.839C5.25993 14.927 5.77998 15.079 6.07998 15.503C6.26998 15.806 6.29988 16.147 6.22988 16.495C6.13988 16.815 5.89978 17.097 5.62978 17.277C5.60978 17.288 5.59998 17.299 5.57998 17.31C5.15998 17.571 4.63981 17.624 4.15981 17.511C4.14981 17.509 4.13978 17.506 4.12978 17.503C3.71978 17.407 3.32 17.137 3.1 16.778C3.02 16.625 2.9899 16.499 2.9999 16.324C3.0199 16.275 3.03997 16.239 3.06997 16.199C3.07997 16.174 3.08 16.174 3.1 16.149C3.19 16.056 3.29983 15.997 3.42983 15.99C3.60983 15.996 3.73 16.106 3.85 16.23C3.88 16.27 3.91986 16.31 3.95986 16.35C4.11986 16.534 4.32998 16.623 4.57998 16.64C4.77998 16.649 4.99983 16.61 5.17983 16.495C5.18983 16.483 5.18985 16.483 5.19985 16.47C5.21985 16.449 5.2199 16.449 5.2499 16.449C5.2599 16.428 5.27994 16.407 5.28994 16.386C5.28994 16.37 5.29996 16.354 5.30996 16.337C5.34996 16.246 5.33997 16.147 5.31997 16.054C5.27997 15.967 5.20978 15.92 5.12978 15.876C5.10978 15.869 5.08997 15.862 5.06997 15.855C5.03997 15.847 5.03992 15.847 5.01992 15.84C4.89992 15.8 4.76979 15.78 4.63979 15.762C4.52979 15.748 4.42998 15.728 4.32998 15.699C4.30998 15.693 4.30994 15.693 4.28994 15.687C4.24994 15.676 4.19981 15.664 4.15981 15.652C4.14981 15.649 4.13978 15.646 4.12978 15.643C3.77978 15.537 3.42989 15.314 3.23989 14.995C3.08989 14.709 3.03978 14.345 3.12978 14.031C3.18978 13.849 3.25979 13.686 3.38979 13.542C3.39979 13.53 3.41983 13.518 3.42983 13.505C3.47983 13.441 3.4799 13.441 3.4999 13.417C3.5099 13.417 3.51994 13.417 3.53994 13.417C3.53994 13.407 3.53994 13.397 3.53994 13.386C3.76994 13.18 4.05978 13.045 4.37978 13.016C4.77978 12.976 5.14992 13.003 5.51992 13.186Z" fill="url(#paint2_linear_3_108)"/>
<path d="M8.70996 14.48C8.75996 14.456 8.8001 14.428 8.8501 14.397C9.1501 14.207 9.49008 14.17 9.83008 14.243C10.1701 14.334 10.4499 14.585 10.6299 14.875C10.7799 15.148 10.78 15.424 10.78 15.727C10.78 15.767 10.78 15.808 10.78 15.848C10.78 15.931 10.78 16.015 10.78 16.099C10.78 16.195 10.78 16.291 10.78 16.388C10.78 16.481 10.78 16.574 10.78 16.668C10.78 16.707 10.78 16.746 10.78 16.786C10.78 16.841 10.78 16.896 10.78 16.951C10.78 16.967 10.78 16.983 10.78 17C10.78 17.148 10.7299 17.301 10.6299 17.41C10.5099 17.509 10.39 17.526 10.24 17.519C10.1 17.506 10.0299 17.431 9.93994 17.333C9.85994 17.223 9.86011 17.122 9.86011 16.993C9.86011 16.976 9.86011 16.959 9.86011 16.941C9.86011 16.905 9.86011 16.868 9.86011 16.831C9.86011 16.773 9.86011 16.714 9.86011 16.656C9.86011 16.501 9.86011 16.345 9.86011 16.19C9.86011 16.078 9.86011 15.966 9.86011 15.854C9.86011 15.815 9.86011 15.777 9.86011 15.738C9.86011 15.684 9.86011 15.63 9.86011 15.576C9.86011 15.56 9.86011 15.544 9.86011 15.528C9.86011 15.404 9.81998 15.328 9.72998 15.241C9.63998 15.181 9.54994 15.157 9.43994 15.167C9.33994 15.199 9.28998 15.245 9.22998 15.329C9.19998 15.415 9.19995 15.497 9.19995 15.588C9.19995 15.628 9.19995 15.669 9.19995 15.709C9.19995 15.772 9.19995 15.835 9.19995 15.899C9.19995 15.96 9.19995 16.021 9.19995 16.082C9.19995 16.101 9.19995 16.12 9.19995 16.139C9.19995 16.282 9.17007 16.385 9.07007 16.494C9.06007 16.505 9.05004 16.515 9.04004 16.527C9.02004 16.538 9.01 16.549 9 16.56C8.89 16.638 8.77989 16.652 8.63989 16.636C8.51989 16.604 8.4201 16.529 8.3501 16.424C8.2901 16.303 8.27002 16.207 8.27002 16.071C8.27002 16.053 8.27002 16.034 8.27002 16.014C8.27002 15.955 8.27003 15.895 8.28003 15.835C8.28003 15.776 8.28003 15.716 8.28003 15.656C8.28003 15.619 8.28003 15.582 8.28003 15.545C8.28003 15.419 8.25993 15.342 8.17993 15.241C8.09993 15.178 8.0099 15.158 7.8999 15.162C7.8199 15.174 7.75995 15.208 7.69995 15.27C7.68995 15.283 7.67993 15.295 7.67993 15.308C7.66993 15.323 7.65989 15.339 7.63989 15.355C7.63989 15.389 7.63989 15.389 7.63989 15.426C7.63989 15.448 7.63989 15.448 7.63989 15.471C7.63989 15.487 7.63989 15.503 7.63989 15.52C7.63989 15.545 7.63989 15.545 7.63989 15.571C7.63989 15.608 7.63989 15.645 7.63989 15.682C7.63989 15.74 7.63989 15.799 7.63989 15.857C7.63989 16.023 7.63989 16.19 7.63989 16.356C7.63989 16.457 7.63989 16.559 7.63989 16.661C7.63989 16.699 7.63989 16.738 7.63989 16.777C7.63989 16.831 7.63989 16.885 7.63989 16.94C7.63989 16.955 7.63989 16.971 7.63989 16.988C7.63989 17.16 7.57996 17.293 7.45996 17.416C7.34996 17.515 7.2501 17.525 7.1001 17.518C7.0001 17.509 6.9201 17.475 6.8501 17.4C6.7401 17.27 6.71997 17.164 6.71997 16.997C6.71997 16.979 6.71997 16.96 6.71997 16.941C6.71997 16.891 6.71997 16.84 6.71997 16.79C6.71997 16.748 6.71997 16.705 6.71997 16.663C6.70997 16.563 6.70996 16.463 6.70996 16.362C6.70996 16.26 6.70996 16.157 6.70996 16.055C6.70996 15.966 6.70996 15.877 6.70996 15.789C6.70996 15.736 6.70996 15.683 6.70996 15.631C6.70996 15.19 6.7901 14.87 7.1001 14.548C7.5501 14.099 8.21996 14.118 8.70996 14.48Z" fill="url(#paint3_linear_3_108)"/>
<path d="M23.67 14.543C23.97 14.787 24.2001 15.095 24.2901 15.477C24.3001 15.494 24.3001 15.511 24.3101 15.529C24.3501 15.695 24.3801 15.904 24.3101 16.066C24.2401 16.182 24.1501 16.242 24.0301 16.28C23.9401 16.298 23.8601 16.297 23.7801 16.296C23.7501 16.297 23.75 16.297 23.72 16.297C23.67 16.297 23.6201 16.298 23.5701 16.298C23.5101 16.298 23.46 16.298 23.4 16.299C23.3 16.299 23.2002 16.3 23.0902 16.3C22.9702 16.301 22.8601 16.301 22.7401 16.302C22.5001 16.303 22.2501 16.304 22.0101 16.305C22.0301 16.328 22.0501 16.35 22.0601 16.373C22.0701 16.385 22.0802 16.398 22.0902 16.41C22.2102 16.555 22.3901 16.648 22.5701 16.668C22.6101 16.67 22.64 16.671 22.67 16.671C22.68 16.671 22.7 16.671 22.71 16.671C22.84 16.667 22.9601 16.619 23.0701 16.553C23.1801 16.509 23.31 16.51 23.42 16.524C23.55 16.577 23.64 16.667 23.7 16.792C23.74 16.909 23.75 17.02 23.7 17.137C23.62 17.32 23.4601 17.406 23.2801 17.477C22.8501 17.632 22.34 17.59 21.93 17.4C21.8 17.337 21.6801 17.262 21.5701 17.165C21.5601 17.155 21.5501 17.145 21.5401 17.135C21.2501 16.893 21.02 16.506 20.98 16.126C20.95 15.594 21.06 15.152 21.41 14.744C21.56 14.584 21.75 14.446 21.95 14.352C21.96 14.345 21.9801 14.339 21.9901 14.331C22.5401 14.096 23.19 14.193 23.67 14.543Z" fill="url(#paint4_linear_3_108)"/>
<path d="M25.4399 14.276C25.5499 14.358 25.6199 14.449 25.6499 14.587C25.6599 14.636 25.6599 14.685 25.6599 14.735C25.6599 14.749 25.6599 14.763 25.6599 14.777C25.6599 14.808 25.6599 14.838 25.6599 14.868C25.6599 14.916 25.6599 14.964 25.6599 15.013C25.6599 15.115 25.6599 15.217 25.6599 15.319C25.6599 15.437 25.6599 15.556 25.6599 15.674C25.6599 15.721 25.6599 15.768 25.6599 15.816C25.6599 16.071 25.7001 16.262 25.8701 16.459C26.0301 16.611 26.2199 16.625 26.4299 16.622C26.5999 16.616 26.7401 16.544 26.8501 16.432C26.9201 16.364 26.96 16.296 26.99 16.212C27 16.2 27.01 16.188 27.01 16.176C27.07 16.032 27.0701 15.892 27.0701 15.739C27.0701 15.691 27.0701 15.644 27.0701 15.596C27.0701 15.513 27.0701 15.429 27.0701 15.345C27.0701 15.211 27.0701 15.076 27.0701 14.942C27.0701 14.895 27.0701 14.849 27.0701 14.802C27.0701 14.773 27.0701 14.744 27.0701 14.716C27.0701 14.703 27.0701 14.69 27.0701 14.677C27.0701 14.529 27.12 14.431 27.22 14.324C27.33 14.226 27.4501 14.204 27.5901 14.205C27.7301 14.22 27.8199 14.295 27.9099 14.396C27.9699 14.494 27.99 14.574 27.99 14.689C27.99 14.711 27.99 14.711 27.99 14.734C27.99 14.782 27.99 14.83 27.99 14.878C27.99 14.912 27.99 14.946 27.99 14.98C27.99 15.051 27.99 15.122 27.99 15.193C27.99 15.283 27.99 15.373 27.99 15.463C27.99 15.533 27.99 15.603 27.99 15.673C27.99 15.706 27.99 15.739 27.99 15.772C27.99 16.295 27.87 16.714 27.5 17.099C27.39 17.2 27.2799 17.277 27.1499 17.352C27.1299 17.366 27.1301 17.366 27.1101 17.38C27.0301 17.421 26.9699 17.45 26.8899 17.471C26.8699 17.475 26.8601 17.479 26.8401 17.483C26.8301 17.486 26.8201 17.49 26.8101 17.493C26.8101 17.503 26.8101 17.513 26.8101 17.524C26.8101 17.631 26.8101 17.738 26.8101 17.845C26.8101 17.885 26.8101 17.924 26.8101 17.964C26.8101 18.022 26.8101 18.079 26.8101 18.137C26.8101 18.154 26.8101 18.172 26.8101 18.19C26.8101 18.35 26.7799 18.474 26.6599 18.591C26.5599 18.685 26.4501 18.7 26.3201 18.698C26.1901 18.691 26.09 18.642 26 18.547C25.89 18.415 25.8799 18.272 25.8799 18.107C25.8799 18.089 25.8799 18.071 25.8799 18.052C25.8799 17.995 25.8799 17.938 25.8799 17.881C25.8799 17.841 25.8799 17.802 25.8799 17.763C25.8799 17.668 25.8799 17.573 25.8899 17.477C25.8799 17.475 25.8701 17.473 25.8601 17.471C25.8401 17.469 25.8301 17.466 25.8201 17.463C25.8101 17.461 25.79 17.458 25.78 17.455C25.73 17.442 25.6799 17.418 25.6299 17.391C25.6199 17.383 25.6201 17.383 25.6001 17.375C25.2301 17.166 24.92 16.839 24.8 16.422C24.76 16.229 24.73 16.036 24.73 15.838C24.73 15.824 24.73 15.811 24.73 15.798C24.73 15.754 24.73 15.7111 24.73 15.6681C24.73 15.6531 24.73 15.639 24.73 15.623C24.73 15.545 24.73 15.466 24.73 15.388C24.73 15.307 24.72 15.226 24.72 15.146C24.72 15.083 24.72 15.021 24.72 14.958C24.72 14.929 24.72 14.899 24.72 14.869C24.72 14.644 24.7199 14.48 24.8899 14.311C25.0499 14.171 25.2599 14.173 25.4399 14.276Z" fill="url(#paint5_linear_3_108)"/>
<path d="M19.53 14.352C19.54 14.36 19.5601 14.368 19.5801 14.376C19.7101 14.438 19.8199 14.51 19.9299 14.602C19.9499 14.614 19.96 14.626 19.98 14.638C20.27 14.893 20.46 15.247 20.53 15.633C20.53 15.682 20.53 15.731 20.53 15.78C20.53 15.795 20.53 15.81 20.53 15.825C20.53 15.874 20.53 15.922 20.53 15.971C20.53 15.988 20.53 16.004 20.53 16.021C20.53 16.109 20.53 16.198 20.53 16.286C20.53 16.376 20.53 16.467 20.53 16.558C20.53 16.628 20.53 16.698 20.53 16.768C20.53 16.802 20.53 16.835 20.53 16.868C20.53 16.915 20.53 16.962 20.53 17.009C20.53 17.03 20.53 17.03 20.53 17.051C20.53 17.19 20.4799 17.302 20.3899 17.402C20.2799 17.495 20.18 17.519 20.04 17.513C19.89 17.498 19.7899 17.44 19.6899 17.325C19.6299 17.231 19.6101 17.15 19.6101 17.037C19.6101 17.023 19.6101 17.01 19.6101 16.995C19.6101 16.965 19.6101 16.935 19.6101 16.905C19.6101 16.858 19.6101 16.81 19.6101 16.762C19.6101 16.627 19.6101 16.491 19.6101 16.356C19.6101 16.273 19.6101 16.19 19.6101 16.107C19.6101 16.076 19.6101 16.044 19.6101 16.013C19.6101 15.84 19.61 15.694 19.53 15.54C19.52 15.526 19.51 15.513 19.5 15.499C19.45 15.413 19.3901 15.35 19.3101 15.29C19.3001 15.282 19.29 15.275 19.28 15.268C19.11 15.151 18.9 15.122 18.7 15.149C18.51 15.195 18.37 15.298 18.26 15.461C18.25 15.471 18.25 15.48 18.24 15.49C18.18 15.598 18.1599 15.7 18.1599 15.823C18.1599 15.844 18.1599 15.844 18.1599 15.866C18.1599 15.896 18.1599 15.926 18.1599 15.956C18.1599 16.004 18.1599 16.052 18.1599 16.099C18.1599 16.235 18.1599 16.371 18.1599 16.507C18.1599 16.59 18.1599 16.673 18.1599 16.756C18.1599 16.788 18.1599 16.819 18.1599 16.851C18.1599 16.895 18.1599 16.94 18.1599 16.984C18.1599 16.997 18.1599 17.01 18.1599 17.023C18.1599 17.171 18.12 17.292 18.01 17.399C17.91 17.493 17.8099 17.519 17.6699 17.513C17.5399 17.501 17.4301 17.465 17.3401 17.37C17.2501 17.257 17.22 17.16 17.22 17.018C17.22 17.004 17.22 16.99 17.22 16.975C17.22 16.928 17.22 16.881 17.22 16.834C17.22 16.801 17.22 16.768 17.22 16.735C17.22 16.666 17.22 16.597 17.22 16.528C17.22 16.44 17.22 16.353 17.22 16.265C17.22 16.197 17.22 16.129 17.22 16.061C17.22 16.028 17.22 15.996 17.22 15.964C17.22 15.78 17.23 15.609 17.28 15.43C17.28 15.418 17.28 15.406 17.29 15.394C17.4 14.956 17.7101 14.612 18.1001 14.385C18.5201 14.167 19.1 14.12 19.53 14.352Z" fill="url(#paint6_linear_3_108)"/>
<path d="M13.29 15.278C13.45 15.402 13.5601 15.547 13.6001 15.746C13.6101 15.885 13.61 16.023 13.55 16.152C13.55 16.163 13.54 16.175 13.54 16.186C13.48 16.333 13.39 16.442 13.25 16.527C13.24 16.534 13.2299 16.541 13.2199 16.549C13.0499 16.653 12.8201 16.667 12.6201 16.625C12.5301 16.594 12.4598 16.55 12.3798 16.496C12.3698 16.486 12.35 16.477 12.34 16.467C12.19 16.327 12.09 16.14 12.08 15.935C12.07 15.711 12.14 15.515 12.3 15.35C12.58 15.091 12.98 15.059 13.29 15.278Z" fill="#FDFDFD"/>
<path d="M15.6699 15.237C15.7099 15.263 15.74 15.291 15.78 15.321C15.79 15.331 15.8001 15.34 15.8101 15.35C15.9401 15.47 16.02 15.629 16.03 15.807C16.03 15.829 16.03 15.851 16.03 15.873C16.03 15.885 16.03 15.896 16.03 15.908C16.03 16.12 15.94 16.289 15.8 16.444C15.65 16.579 15.47 16.64 15.27 16.639C15.26 16.639 15.25 16.638 15.23 16.638C15.04 16.635 14.88 16.568 14.74 16.434C14.6 16.284 14.51 16.107 14.5 15.899C14.51 15.711 14.5699 15.561 14.6799 15.415C14.6999 15.399 14.71 15.382 14.72 15.365C14.97 15.1 15.3499 15.061 15.6699 15.237Z" fill="#FDFDFD"/>
<path d="M22.98 15.133C22.99 15.138 23 15.143 23.02 15.148C23.1 15.185 23.17 15.234 23.24 15.296C23.24 15.303 23.25 15.311 23.26 15.318C23.31 15.366 23.3499 15.416 23.3899 15.477C23.3899 15.493 23.3899 15.508 23.3899 15.524C22.9199 15.524 22.46 15.524 21.98 15.524C22.04 15.347 22.1601 15.234 22.3201 15.149C22.5101 15.062 22.79 15.046 22.98 15.133Z" fill="#FCFCFC"/>
</g>
</g>
<defs>
<linearGradient id="paint0_linear_3_108" x1="15.2801" y1="14.198" x2="15.2801" y2="17.56" gradientUnits="userSpaceOnUse">
<stop stop-color="#001B2F"/>
<stop offset="1" stop-color="#05416F"/>
</linearGradient>
<linearGradient id="paint1_linear_3_108" x1="12.84" y1="14.201" x2="12.84" y2="17.569" gradientUnits="userSpaceOnUse">
<stop stop-color="#001B2F"/>
<stop offset="1" stop-color="#05416F"/>
</linearGradient>
<linearGradient id="paint2_linear_3_108" x1="4.6299" y1="13" x2="4.6299" y2="17.567" gradientUnits="userSpaceOnUse">
<stop stop-color="#12C6BE"/>
<stop offset="0.46" stop-color="#0DA9B1"/>
<stop offset="1" stop-color="#0888A1"/>
</linearGradient>
<linearGradient id="paint3_linear_3_108" x1="8.75" y1="14.208" x2="8.75" y2="17.52" gradientUnits="userSpaceOnUse">
<stop stop-color="#001B2F"/>
<stop offset="1" stop-color="#05416F"/>
</linearGradient>
<linearGradient id="paint4_linear_3_108" x1="22.6601" y1="14.203" x2="22.6601" y2="17.571" gradientUnits="userSpaceOnUse">
<stop stop-color="#001B2F"/>
<stop offset="1" stop-color="#05416F"/>
</linearGradient>
<linearGradient id="paint5_linear_3_108" x1="26.35" y1="14.202" x2="26.35" y2="18.698" gradientUnits="userSpaceOnUse">
<stop stop-color="#001B2F"/>
<stop offset="1" stop-color="#05416F"/>
</linearGradient>
<linearGradient id="paint6_linear_3_108" x1="18.88" y1="14.198" x2="18.88" y2="17.514" gradientUnits="userSpaceOnUse">
<stop stop-color="#001B2F"/>
<stop offset="1" stop-color="#05416F"/>
</linearGradient>
</defs>
</svg>
