<svg width="180" height="180" viewBox="0 0 180 180" fill="none" xmlns="http://www.w3.org/2000/svg">
<mask id="mask0_3_71" style="mask-type:luminance" maskUnits="userSpaceOnUse" x="0" y="0" width="180" height="180">
<path d="M180 0H0V180H180V0Z" fill="white"/>
</mask>
<g mask="url(#mask0_3_71)">
<mask id="mask1_3_71" style="mask-type:alpha" maskUnits="userSpaceOnUse" x="-1" y="-1" width="181" height="181">
<path d="M36.7499 -0.0939914C37.2199 -0.0959914 37.6998 -0.0969962 38.1698 -0.0989962C39.4698 -0.102996 40.77 -0.102987 42.07 -0.101987C43.48 -0.101987 44.8799 -0.105983 46.2899 -0.109983C49.0399 -0.114983 51.7899 -0.116978 54.5399 -0.117978C56.7699 -0.117978 59.0099 -0.119006 61.2499 -0.122006C67.5999 -0.128006 73.9499 -0.130979 80.2999 -0.130979C80.8199 -0.130979 80.82 -0.131002 81.34 -0.130002C81.68 -0.130002 82.0198 -0.130002 82.3798 -0.130002C87.9198 -0.130002 93.4699 -0.13697 99.0099 -0.14697C104.72 -0.15697 110.42 -0.162008 116.12 -0.161008C119.32 -0.161008 122.52 -0.16298 125.72 -0.16998C128.44 -0.17698 131.17 -0.177971 133.89 -0.172971C135.28 -0.170971 136.66 -0.170999 138.05 -0.176999C144.61 -0.203999 150.98 -0.166001 157.1 2.521C157.46 2.677 157.46 2.677 157.83 2.836C166.44 6.664 173.58 13.808 177.16 22.555C178.94 27.261 179.75 31.703 179.73 36.745C179.73 37.221 179.74 37.697 179.74 38.174C179.74 39.473 179.74 40.772 179.74 42.071C179.74 43.477 179.74 44.882 179.75 46.287C179.75 49.036 179.76 51.786 179.76 54.535C179.76 56.772 179.76 59.009 179.76 61.246C179.77 67.598 179.77 73.951 179.77 80.303C179.77 80.816 179.77 80.816 179.77 81.339C179.77 81.682 179.77 82.024 179.77 82.377C179.77 87.922 179.78 93.467 179.78 99.012C179.8 104.716 179.8 110.42 179.8 116.124C179.8 119.322 179.8 122.52 179.81 125.718C179.81 128.442 179.82 131.165 179.81 133.889C179.81 135.276 179.81 136.663 179.82 138.051C179.84 144.612 179.8 150.976 177.12 157.096C177.01 157.338 176.91 157.581 176.8 157.831C172.97 166.44 165.83 173.583 157.08 177.159C152.38 178.938 147.94 179.745 142.89 179.732C142.42 179.733 141.94 179.735 141.46 179.737C140.17 179.741 138.87 179.741 137.57 179.74C136.16 179.74 134.76 179.744 133.35 179.747C130.6 179.753 127.85 179.755 125.1 179.755C122.87 179.756 120.63 179.757 118.39 179.759C112.04 179.766 105.69 179.769 99.34 179.768C98.99 179.768 98.6499 179.768 98.2999 179.768C97.9599 179.768 97.6099 179.768 97.2599 179.768C91.7199 179.768 86.1698 179.775 80.6298 179.784C74.9198 179.795 69.2199 179.799 63.5099 179.799C60.3199 179.798 57.1198 179.8 53.9198 179.808C51.1998 179.814 48.4699 179.816 45.7499 179.811C44.3599 179.809 42.97 179.809 41.59 179.815C35.03 179.842 28.6599 179.804 22.5399 177.116C22.2999 177.012 22.0599 176.908 21.8099 176.801C13.1999 172.973 6.05987 165.83 2.47987 157.083C0.699866 152.377 -0.110203 147.935 -0.0902028 142.893C-0.100203 142.417 -0.100213 141.94 -0.100213 141.464C-0.100213 140.165 -0.100213 138.865 -0.100213 137.566C-0.100213 136.161 -0.110222 134.756 -0.110222 133.351C-0.110222 130.601 -0.120232 127.852 -0.120232 125.102C-0.120232 122.865 -0.120232 120.628 -0.120232 118.392C-0.130232 112.039 -0.129998 105.687 -0.129998 99.335C-0.129998 98.993 -0.129998 98.651 -0.129998 98.298C-0.129998 97.956 -0.129998 97.613 -0.129998 97.261C-0.129998 91.716 -0.140017 86.171 -0.150017 80.626C-0.160017 74.922 -0.160027 69.218 -0.160027 63.514C-0.160027 60.316 -0.160037 57.118 -0.170037 53.92C-0.180037 51.196 -0.180037 48.472 -0.170037 45.749C-0.170037 44.361 -0.170047 42.974 -0.180047 41.587C-0.200047 35.026 -0.170095 28.661 2.5199 22.542C2.6299 22.3 2.72997 22.057 2.83997 21.807C6.65997 13.198 13.8099 6.05503 22.5599 2.47803C27.2599 0.70003 31.6999 -0.106991 36.7499 -0.0939914Z" fill="white"/>
</mask>
<g mask="url(#mask1_3_71)">
<path d="M582 -87H-120V580H582V-87Z" fill="white"/>
</g>
<mask id="mask2_3_71" style="mask-type:luminance" maskUnits="userSpaceOnUse" x="15" y="73" width="150" height="35">
<path d="M165 73H15V107.219H165V73Z" fill="white"/>
</mask>
<g mask="url(#mask2_3_71)">
<path d="M95.17 82.673C97.33 84.544 98.5101 87.075 98.7201 89.909C98.7901 92.598 97.89 94.922 96.16 96.958C96.1 97.035 96.0401 97.113 95.9801 97.192C94.4701 99.003 91.95 100.058 89.65 100.312C86.96 100.55 84.5 99.874 82.38 98.177C80.31 96.427 78.93 94.149 78.63 91.427C78.52 89.899 78.6102 88.475 79.1002 87.021C79.1402 86.916 79.1701 86.812 79.2101 86.705C79.6601 85.504 80.3701 84.475 81.2601 83.552C81.3301 83.457 81.4001 83.362 81.4801 83.265C82.1301 82.534 82.9502 81.987 83.7902 81.489C83.8902 81.427 84.0002 81.365 84.1002 81.301C87.6402 79.299 92.16 80.155 95.17 82.673Z" fill="url(#paint0_linear_3_71)"/>
<path d="M80.74 82.816C82.49 84.354 83.83 86.667 84.03 89.004C84.21 92.295 83.49 94.833 81.27 97.321C80.6 98.021 79.8801 98.536 79.0601 99.035C78.9701 99.09 78.88 99.145 78.79 99.202C76.71 100.413 73.87 100.705 71.55 100.118C68.88 99.373 66.68 97.665 65.28 95.285C64.39 93.68 64.02 92.014 64.03 90.188C64.03 90.074 64.02 89.96 64.02 89.843C64.02 87.106 65.39 84.774 67.28 82.878C67.87 82.32 68.51 81.907 69.21 81.504C69.32 81.441 69.42 81.378 69.53 81.313C73.17 79.246 77.67 80.267 80.74 82.816Z" fill="url(#paint1_linear_3_71)"/>
<path d="M30.0901 74.114C31.4301 74.809 32.8 75.866 33.43 77.279C33.6 78.037 33.4702 78.6611 33.1202 79.3481C32.7102 79.9001 32.2001 80.3091 31.5201 80.4731C30.2001 80.6531 29.3701 80.101 28.3001 79.41C26.8501 78.492 25.14 78.279 23.47 78.609C22.63 78.833 21.87 79.2531 21.4 80.0041C21.1 80.6251 20.98 81.274 21.2 81.936C21.45 82.485 21.71 82.8241 22.24 83.0981C22.32 83.1371 22.4 83.176 22.47 83.216C23.48 83.682 24.58 83.838 25.66 84.034C28.55 84.559 31.71 85.474 33.47 88.016C34.6 89.837 34.8202 91.88 34.3502 93.969C33.8502 95.892 32.4001 97.582 30.7701 98.66C30.6801 98.726 30.5901 98.792 30.5001 98.859C27.9401 100.424 24.86 100.741 21.96 100.066C21.9 100.051 21.8301 100.036 21.7601 100.021C19.3101 99.44 16.9402 97.821 15.6002 95.667C15.0902 94.752 14.9301 93.997 15.0201 92.941C15.1101 92.652 15.22 92.434 15.4 92.191C15.5 92.044 15.5002 92.044 15.6102 91.893C16.1502 91.338 16.8001 90.98 17.5801 90.938C18.6701 90.976 19.3701 91.6341 20.0901 92.3791C20.3101 92.6181 20.52 92.8601 20.74 93.1031C21.73 94.2051 22.99 94.7411 24.46 94.8401C25.71 94.8921 27.0001 94.6601 28.0601 93.9731C28.1301 93.8961 28.13 93.896 28.21 93.818C28.34 93.691 28.3401 93.691 28.5201 93.691C28.5901 93.568 28.65 93.442 28.71 93.316C28.76 93.22 28.8102 93.123 28.8602 93.023C29.0902 92.478 29.07 91.884 28.89 91.324C28.67 90.803 28.2601 90.517 27.7701 90.258C27.6501 90.212 27.52 90.1701 27.4 90.1291C27.27 90.0841 27.27 90.084 27.14 90.039C26.37 89.8 25.6201 89.678 24.8301 89.573C24.2101 89.489 23.6 89.365 22.99 89.191C22.86 89.157 22.86 89.157 22.73 89.121C22.47 89.054 22.22 88.983 21.96 88.91C21.9 88.892 21.8301 88.875 21.7701 88.856C19.6501 88.22 17.59 86.8811 16.43 84.9731C15.54 83.2561 15.2301 81.07 15.7601 79.186C16.1501 78.095 16.5802 77.1151 17.3702 76.2541C17.4302 76.1811 17.4901 76.107 17.5501 76.031C17.8801 75.646 17.8801 75.6461 18.0201 75.5041C18.0901 75.5041 18.15 75.5041 18.21 75.5041C18.21 75.4421 18.21 75.38 18.21 75.317C19.63 74.083 21.3901 73.268 23.2501 73.097C25.6601 72.855 27.8801 73.02 30.0901 74.114Z" fill="url(#paint2_linear_3_71)"/>
<path d="M49.2399 81.879C49.5399 81.738 49.81 81.566 50.09 81.381C51.87 80.243 53.9499 80.0209 55.9999 80.4569C57.9999 81.0019 59.7199 82.51 60.7699 84.249C61.6599 85.889 61.6798 87.5419 61.6698 89.3629C61.6698 89.6039 61.6698 89.845 61.6698 90.086C61.6698 90.588 61.6698 91.09 61.6698 91.592C61.6698 92.17 61.6698 92.747 61.6798 93.325C61.6798 93.885 61.6798 94.445 61.6798 95.006C61.6798 95.242 61.6798 95.478 61.6798 95.715C61.6798 96.046 61.6798 96.3759 61.6798 96.7069C61.6798 96.8029 61.6798 96.899 61.6798 96.998C61.6698 97.889 61.3899 98.808 60.7499 99.46C60.0399 100.054 59.3298 100.158 58.4298 100.111C57.6198 100.035 57.15 99.584 56.62 98.995C56.18 98.336 56.1398 97.729 56.1498 96.958C56.1498 96.856 56.1498 96.754 56.1498 96.648C56.1498 96.428 56.1498 96.207 56.1498 95.986C56.1498 95.636 56.1498 95.2859 56.1498 94.9359C56.1398 94.0039 56.1398 93.072 56.1498 92.14C56.1498 91.468 56.1498 90.796 56.1398 90.124C56.1398 89.892 56.1398 89.66 56.1498 89.429C56.1498 89.104 56.1498 88.78 56.1398 88.456C56.1498 88.361 56.1498 88.266 56.1498 88.167C56.1398 87.425 55.9198 86.966 55.3998 86.443C54.8298 86.085 54.3198 85.94 53.6498 86.004C53.0598 86.193 52.72 86.4709 52.37 86.9749C52.18 87.4889 52.2098 87.983 52.2098 88.528C52.2098 88.77 52.2098 89.011 52.2098 89.253C52.2098 89.632 52.2098 90.012 52.2098 90.391C52.2098 90.758 52.2098 91.125 52.2098 91.493C52.2098 91.605 52.2098 91.717 52.2098 91.833C52.1998 92.689 52.0098 93.31 51.4498 93.961C51.3698 94.027 51.2898 94.0919 51.2098 94.1599C51.1398 94.2259 51.0699 94.292 50.9999 94.359C50.3299 94.826 49.67 94.9089 48.87 94.8159C48.14 94.6249 47.53 94.173 47.12 93.546C46.73 92.82 46.6298 92.2439 46.6498 91.4279C46.6498 91.3149 46.6498 91.202 46.6498 91.085C46.6498 90.727 46.6498 90.37 46.6498 90.012C46.6598 89.653 46.6598 89.293 46.6598 88.934C46.6598 88.712 46.6598 88.489 46.6598 88.267C46.6598 87.516 46.54 87.05 46.08 86.443C45.57 86.065 45.0398 85.95 44.4098 85.971C43.9098 86.043 43.5498 86.25 43.2098 86.619C43.1598 86.695 43.1099 86.77 43.0599 86.848C42.9899 86.94 42.93 87.033 42.87 87.129C42.84 87.331 42.84 87.331 42.84 87.558C42.84 87.69 42.84 87.69 42.84 87.825C42.84 87.921 42.84 88.018 42.84 88.117C42.84 88.27 42.84 88.27 42.84 88.425C42.84 88.647 42.84 88.868 42.84 89.089C42.84 89.44 42.84 89.791 42.84 90.141C42.84 91.139 42.83 92.1369 42.83 93.1339C42.83 93.7439 42.83 94.354 42.83 94.964C42.83 95.196 42.83 95.4279 42.83 95.6599C42.83 95.9859 42.82 96.312 42.82 96.638C42.82 96.732 42.82 96.827 42.82 96.925C42.81 97.96 42.4999 98.757 41.7699 99.494C41.1099 100.091 40.47 100.147 39.6 100.107C38.97 100.056 38.52 99.8509 38.08 99.4019C37.43 98.6169 37.2899 97.9809 37.2999 96.9829C37.2999 96.8719 37.2999 96.7609 37.2999 96.6469C37.2899 96.3449 37.2899 96.042 37.2899 95.739C37.2899 95.485 37.2899 95.231 37.2899 94.977C37.2899 94.376 37.2899 93.775 37.2899 93.174C37.2899 92.558 37.2899 91.943 37.2799 91.327C37.2799 90.796 37.2799 90.264 37.2799 89.732C37.2799 89.416 37.2799 89.1 37.2799 88.784C37.2599 86.139 37.72 84.221 39.61 82.289C42.32 79.592 46.2899 79.708 49.2399 81.879Z" fill="url(#paint3_linear_3_71)"/>
<path d="M139 82.256C140.85 83.721 142.17 85.5709 142.75 87.8629C142.78 87.9639 142.81 88.066 142.84 88.171C143.08 89.168 143.28 90.424 142.84 91.396C142.42 92.09 141.92 92.452 141.15 92.677C140.66 92.785 140.18 92.779 139.69 92.778C139.51 92.78 139.51 92.78 139.34 92.781C139.02 92.783 138.71 92.7849 138.4 92.7849C138.07 92.7859 137.74 92.789 137.41 92.791C136.79 92.795 136.17 92.798 135.55 92.8C134.84 92.802 134.13 92.8059 133.43 92.8109C131.97 92.8189 130.52 92.826 129.06 92.831C129.17 92.966 129.27 93.1 129.37 93.235C129.43 93.31 129.49 93.384 129.55 93.461C130.25 94.33 131.33 94.89 132.44 95.008C132.64 95.019 132.83 95.023 133.03 95.023C133.1 95.023 133.17 95.0229 133.24 95.0219C134.06 95.0039 134.74 94.715 135.44 94.316C136.06 94.051 136.85 94.059 137.5 94.144C138.28 94.46 138.83 95.001 139.19 95.752C139.46 96.452 139.48 97.1189 139.22 97.8239C138.72 98.9179 137.76 99.4359 136.67 99.8629C134.1 100.789 131.05 100.537 128.6 99.401C127.8 99.019 127.1 98.5699 126.44 97.9879C126.37 97.9289 126.29 97.87 126.22 97.809C124.48 96.359 123.1 94.034 122.89 91.753C122.7 88.562 123.33 85.911 125.46 83.461C126.38 82.503 127.48 81.6769 128.69 81.1129C128.78 81.0719 128.86 81.0309 128.95 80.9879C132.27 79.5779 136.13 80.159 139 82.256Z" fill="url(#paint4_linear_3_71)"/>
<path d="M149.62 80.653C150.33 81.15 150.7 81.692 150.91 82.519C150.94 82.816 150.94 83.108 150.94 83.407C150.94 83.492 150.94 83.576 150.94 83.663C150.95 83.845 150.95 84.027 150.95 84.209C150.94 84.497 150.95 84.786 150.95 85.075C150.95 85.688 150.95 86.301 150.95 86.914C150.95 87.624 150.96 88.334 150.96 89.044C150.96 89.327 150.96 89.61 150.96 89.893C150.97 91.424 151.18 92.574 152.24 93.751C153.21 94.664 154.34 94.751 155.6 94.732C156.57 94.696 157.42 94.264 158.12 93.592C158.5 93.186 158.76 92.777 158.97 92.269C159 92.198 159.03 92.127 159.07 92.054C159.41 91.189 159.4 90.349 159.39 89.433C159.39 89.148 159.39 88.862 159.39 88.577C159.4 88.074 159.4 87.572 159.4 87.069C159.4 86.263 159.4 85.457 159.4 84.651C159.4 84.371 159.4 84.091 159.4 83.811C159.4 83.638 159.4 83.465 159.4 83.293C159.4 83.216 159.4 83.139 159.4 83.059C159.41 82.171 159.73 81.588 160.34 80.945C160.99 80.353 161.7 80.223 162.56 80.231C163.36 80.319 163.95 80.769 164.46 81.373C164.84 81.965 164.92 82.444 164.91 83.136C164.91 83.268 164.91 83.268 164.91 83.402C164.91 83.691 164.91 83.98 164.91 84.269C164.91 84.472 164.91 84.675 164.91 84.878C164.91 85.304 164.91 85.729 164.91 86.155C164.91 86.695 164.91 87.236 164.91 87.776C164.91 88.196 164.91 88.615 164.91 89.035C164.91 89.234 164.91 89.433 164.91 89.632C164.92 92.77 164.2 95.284 162 97.592C161.36 98.199 160.66 98.664 159.91 99.113C159.77 99.196 159.77 99.196 159.63 99.28C159.2 99.527 158.82 99.697 158.34 99.823C158.25 99.848 158.16 99.873 158.06 99.899C157.99 99.918 157.92 99.937 157.84 99.956C157.84 100.018 157.85 100.079 157.85 100.142C157.85 100.784 157.86 101.426 157.86 102.068C157.87 102.307 157.87 102.546 157.87 102.785C157.88 103.13 157.88 103.475 157.88 103.82C157.88 103.926 157.88 104.032 157.89 104.141C157.89 105.1 157.65 105.845 156.99 106.548C156.37 107.11 155.73 107.199 154.92 107.189C154.12 107.146 153.56 106.854 153 106.279C152.36 105.492 152.26 104.632 152.28 103.644C152.28 103.535 152.28 103.426 152.28 103.314C152.28 102.97 152.28 102.626 152.29 102.283C152.29 102.048 152.29 101.813 152.29 101.579C152.3 101.007 152.3 100.435 152.31 99.863C152.26 99.851 152.2 99.839 152.14 99.827C152.06 99.811 151.99 99.795 151.91 99.778C151.84 99.763 151.76 99.747 151.69 99.731C151.37 99.649 151.08 99.508 150.8 99.347C150.71 99.298 150.71 99.298 150.61 99.248C148.39 97.997 146.54 96.032 145.83 93.531C145.55 92.375 145.36 91.216 145.36 90.025C145.36 89.945 145.36 89.866 145.36 89.785C145.36 89.526 145.36 89.267 145.36 89.009C145.36 88.92 145.36 88.83 145.36 88.739C145.35 88.268 145.35 87.797 145.35 87.326C145.35 86.842 145.35 86.357 145.35 85.873C145.35 85.498 145.34 85.124 145.34 84.749C145.34 84.571 145.34 84.392 145.34 84.214C145.33 82.86 145.35 81.881 146.34 80.866C147.29 80.026 148.54 80.04 149.62 80.653Z" fill="url(#paint5_linear_3_71)"/>
<path d="M114.16 81.113C114.26 81.161 114.36 81.209 114.47 81.259C115.25 81.626 115.93 82.063 116.59 82.613C116.68 82.684 116.77 82.755 116.86 82.829C118.63 84.361 119.79 86.48 120.16 88.8C120.17 89.095 120.17 89.389 120.17 89.683C120.17 89.772 120.17 89.86 120.18 89.951C120.18 90.243 120.18 90.534 120.18 90.826C120.18 90.926 120.18 91.026 120.18 91.129C120.18 91.657 120.18 92.186 120.18 92.715C120.19 93.259 120.19 93.804 120.19 94.349C120.19 94.769 120.2 95.189 120.2 95.609C120.2 95.81 120.2 96.011 120.2 96.211C120.2 96.493 120.2 96.774 120.2 97.056C120.2 97.179 120.2 97.179 120.2 97.305C120.2 98.138 119.89 98.81 119.32 99.413C118.69 99.969 118.08 100.114 117.26 100.078C116.33 99.989 115.77 99.641 115.15 98.953C114.75 98.384 114.68 97.902 114.69 97.225C114.69 97.141 114.69 97.058 114.69 96.972C114.69 96.792 114.69 96.612 114.69 96.432C114.69 96.146 114.69 95.86 114.69 95.574C114.68 94.762 114.68 93.949 114.69 93.137C114.69 92.639 114.69 92.141 114.68 91.643C114.68 91.454 114.68 91.265 114.68 91.076C114.69 90.041 114.69 89.162 114.16 88.238C114.11 88.158 114.07 88.078 114.02 87.996C113.71 87.48 113.32 87.1 112.84 86.738C112.79 86.694 112.73 86.651 112.68 86.606C111.68 85.907 110.37 85.735 109.19 85.894C108.05 86.17 107.2 86.79 106.56 87.769C106.53 87.825 106.49 87.881 106.45 87.939C106.06 88.588 105.97 89.201 105.97 89.941C105.97 90.067 105.97 90.067 105.97 90.195C105.97 90.376 105.97 90.556 105.97 90.737C105.97 91.024 105.97 91.31 105.97 91.597C105.96 92.411 105.96 93.226 105.96 94.04C105.96 94.54 105.95 95.039 105.95 95.538C105.95 95.728 105.95 95.917 105.95 96.107C105.95 96.372 105.95 96.638 105.94 96.904C105.94 96.981 105.95 97.058 105.95 97.138C105.93 98.026 105.72 98.754 105.09 99.396C104.44 99.956 103.86 100.115 103 100.077C102.24 100.005 101.59 99.791 101.06 99.22C100.52 98.54 100.33 97.962 100.34 97.109C100.34 97.024 100.34 96.938 100.34 96.85C100.34 96.568 100.34 96.286 100.34 96.004C100.34 95.807 100.34 95.609 100.34 95.412C100.34 94.998 100.34 94.584 100.34 94.17C100.34 93.643 100.34 93.116 100.34 92.59C100.34 92.182 100.34 91.773 100.34 91.365C100.34 91.171 100.34 90.977 100.34 90.783C100.33 89.679 100.38 88.654 100.66 87.582C100.67 87.51 100.69 87.439 100.71 87.366C101.43 84.734 103.28 82.673 105.6 81.312C108.12 80.004 111.61 79.72 114.16 81.113Z" fill="url(#paint6_linear_3_71)"/>
<path d="M76.7701 86.668C77.7101 87.413 78.3402 88.281 78.5902 89.473C78.6802 90.308 78.6602 91.138 78.3102 91.91C78.2802 91.979 78.2501 92.048 78.2301 92.118C77.8801 92.995 77.3201 93.653 76.5301 94.16C76.4601 94.204 76.3902 94.247 76.3202 94.292C75.2702 94.918 73.9201 95 72.7401 94.749C72.2101 94.565 71.7301 94.297 71.2801 93.973C71.1901 93.917 71.1101 93.861 71.0301 93.803C70.1201 92.962 69.5701 91.839 69.4701 90.61C69.4301 89.268 69.8601 88.091 70.7801 87.1C72.4501 85.546 74.8801 85.352 76.7701 86.668Z" fill="#FDFDFD"/>
<path d="M91 86.4211C91.23 86.5781 91.4499 86.744 91.6599 86.927C91.7299 86.984 91.8001 87.041 91.8701 87.099C92.6501 87.822 93.1399 88.772 93.1899 89.844C93.1899 89.975 93.1899 90.106 93.1899 90.237C93.1899 90.307 93.1899 90.376 93.1899 90.448C93.1599 91.718 92.66 92.732 91.8 93.66C90.88 94.473 89.8399 94.84 88.6299 94.831C88.5499 94.831 88.4699 94.83 88.3899 94.83C87.2299 94.807 86.3 94.407 85.45 93.601C84.61 92.706 84.06 91.642 84.02 90.396C84.06 89.267 84.3901 88.362 85.1001 87.489C85.1701 87.391 85.2401 87.292 85.3201 87.191C86.8401 85.6 89.11 85.3671 91 86.4211Z" fill="#FDFDFD"/>
<path d="M134.88 85.8C134.95 85.829 135.02 85.858 135.1 85.887C135.61 86.109 136 86.407 136.41 86.779C136.46 86.821 136.5 86.864 136.55 86.908C136.86 87.198 137.1 87.498 137.31 87.863C137.31 87.956 137.31 88.048 137.31 88.144C134.53 88.144 131.74 88.144 128.88 88.144C129.23 87.08 129.96 86.405 130.94 85.894C132.08 85.375 133.72 85.274 134.88 85.8Z" fill="#FCFCFC"/>
</g>
</g>
<defs>
<linearGradient id="paint0_linear_3_71" x1="88.6601" y1="80.191" x2="88.6601" y2="100.358" gradientUnits="userSpaceOnUse">
<stop stop-color="#001B2F"/>
<stop offset="1" stop-color="#05416F"/>
</linearGradient>
<linearGradient id="paint1_linear_3_71" x1="74.04" y1="80.208" x2="74.04" y2="100.411" gradientUnits="userSpaceOnUse">
<stop stop-color="#001B2F"/>
<stop offset="1" stop-color="#05416F"/>
</linearGradient>
<linearGradient id="paint2_linear_3_71" x1="24.7901" y1="73" x2="24.7901" y2="100.401" gradientUnits="userSpaceOnUse">
<stop stop-color="#12C6BE"/>
<stop offset="0.46" stop-color="#0DA9B1"/>
<stop offset="1" stop-color="#0888A1"/>
</linearGradient>
<linearGradient id="paint3_linear_3_71" x1="49.4799" y1="80.2489" x2="49.4799" y2="100.121" gradientUnits="userSpaceOnUse">
<stop stop-color="#001B2F"/>
<stop offset="1" stop-color="#05416F"/>
</linearGradient>
<linearGradient id="paint4_linear_3_71" x1="132.98" y1="80.2169" x2="132.98" y2="100.428" gradientUnits="userSpaceOnUse">
<stop stop-color="#001B2F"/>
<stop offset="1" stop-color="#05416F"/>
</linearGradient>
<linearGradient id="paint5_linear_3_71" x1="155.13" y1="80.212" x2="155.13" y2="107.19" gradientUnits="userSpaceOnUse">
<stop stop-color="#001B2F"/>
<stop offset="1" stop-color="#05416F"/>
</linearGradient>
<linearGradient id="paint6_linear_3_71" x1="110.27" y1="80.191" x2="110.27" y2="100.083" gradientUnits="userSpaceOnUse">
<stop stop-color="#001B2F"/>
<stop offset="1" stop-color="#05416F"/>
</linearGradient>
</defs>
</svg>
