<svg width="1600" height="365" viewBox="0 0 1600 365" fill="none" xmlns="http://www.w3.org/2000/svg">
<mask id="mask0_3_85" style="mask-type:luminance" maskUnits="userSpaceOnUse" x="0" y="0" width="1600" height="365">
<path d="M1600 0H0V365H1600V0Z" fill="white"/>
</mask>
<g mask="url(#mask0_3_85)">
<path d="M855.156 103.177C878.177 123.14 890.766 150.131 893.029 180.363C893.752 209.049 884.184 233.836 865.744 255.554C865.114 256.379 864.483 257.204 863.834 258.054C847.688 277.368 820.789 288.623 796.307 291.327C767.583 293.871 741.386 286.655 718.744 268.554C696.648 249.891 681.913 225.588 678.744 196.554C677.506 180.253 678.487 165.066 683.744 149.554C684.116 148.443 684.489 147.332 684.873 146.187C689.75 133.373 697.311 122.397 706.744 112.554C707.528 111.544 708.311 110.533 709.119 109.492C716.081 101.701 724.811 95.86 733.744 90.554C734.859 89.892 735.974 89.229 737.123 88.546C774.829 67.193 823.084 76.325 855.156 103.177Z" fill="url(#paint0_linear_3_85)"/>
<path d="M701.264 104.709C719.924 121.11 734.133 145.786 736.264 170.709C738.186 205.81 730.522 232.884 706.838 259.428C699.767 266.887 692.004 272.384 683.264 277.709C682.315 278.297 681.366 278.885 680.389 279.491C658.245 292.408 627.976 295.519 603.229 289.257C574.724 281.309 551.272 263.098 536.264 237.709C526.772 220.587 522.9 202.814 522.951 183.334C522.935 182.123 522.919 180.911 522.902 179.662C522.887 150.469 537.443 125.59 557.6 105.366C563.901 99.411 570.782 95.007 578.264 90.709C579.396 90.036 580.527 89.364 581.693 88.67C620.477 66.622 668.473 77.515 701.264 104.709Z" fill="url(#paint1_linear_3_85)"/>
<path d="M161.012 11.887C175.298 19.293 189.839 30.568 196.576 45.647C198.391 53.73 197.049 60.384 193.264 67.709C188.909 73.598 183.439 77.967 176.264 79.709C162.16 81.635 153.309 75.742 141.897 68.377C126.439 58.584 108.172 56.311 90.326 59.834C81.405 62.221 73.23 66.695 68.264 74.709C65.068 81.332 63.765 88.254 66.143 95.323C68.767 101.169 71.563 104.79 77.264 107.709C78.072 108.127 78.88 108.545 79.713 108.975C90.441 113.942 102.161 115.61 113.709 117.694C144.55 123.299 178.19 133.056 196.971 160.174C209.091 179.597 211.364 201.387 206.436 223.674C201.028 244.184 185.603 262.206 168.264 273.709C167.294 274.411 166.325 275.112 165.326 275.834C138.068 292.523 105.164 295.909 74.264 288.709C73.557 288.548 72.85 288.387 72.122 288.222C45.967 282.031 20.713 264.762 6.447 241.784C0.962998 232.018 -0.715 223.964 0.264 212.709C1.142 209.62 2.379 207.293 4.264 204.709C5.378 203.132 5.378 203.132 6.514 201.522C12.296 195.608 19.155 191.788 27.514 191.334C39.126 191.741 46.595 198.767 54.264 206.709C56.609 209.258 58.909 211.842 61.209 214.432C71.817 226.19 85.25 231.904 100.936 232.955C114.189 233.514 127.974 231.044 139.264 223.709C140.074 222.891 140.074 222.891 140.9 222.057C142.264 220.709 142.264 220.709 144.264 220.709C144.952 219.387 145.611 218.05 146.264 216.709C146.8 215.678 147.336 214.647 147.889 213.584C150.329 207.77 150.038 201.425 148.201 195.459C145.808 189.897 141.417 186.852 136.201 184.084C134.899 183.598 133.584 183.144 132.264 182.709C130.87 182.234 130.87 182.234 129.447 181.748C121.322 179.197 113.309 177.895 104.887 176.784C98.189 175.887 91.766 174.564 85.264 172.709C83.854 172.338 83.854 172.338 82.416 171.959C79.689 171.239 76.976 170.484 74.264 169.709C73.574 169.52 72.884 169.33 72.174 169.135C49.642 162.345 27.605 148.065 15.264 127.709C5.751 109.402 2.471 86.083 8.096 65.987C12.245 54.344 16.803 43.897 25.264 34.709C25.92 33.926 26.576 33.142 27.252 32.334C30.701 28.222 30.701 28.222 32.264 26.709C32.924 26.709 33.584 26.709 34.264 26.709C34.264 26.049 34.264 25.389 34.264 24.709C49.398 11.552 68.131 2.86099 88.033 1.03399C113.71 -1.54301 137.428 0.212013 161.012 11.887Z" fill="url(#paint2_linear_3_85)"/>
<path d="M365.264 94.709C368.472 93.202 371.322 91.371 374.264 89.397C393.309 77.263 415.516 74.896 437.346 79.538C458.649 85.35 477.065 101.438 488.24 119.991C497.669 137.484 497.879 155.119 497.83 174.541C497.835 177.112 497.842 179.682 497.849 182.252C497.859 187.608 497.855 192.964 497.84 198.32C497.823 204.48 497.839 210.639 497.871 216.798C497.901 222.775 497.903 228.751 497.894 234.727C497.893 237.249 497.9 239.771 497.915 242.292C497.932 245.821 497.918 249.348 497.895 252.877C497.907 253.901 497.918 254.925 497.93 255.98C497.807 265.483 494.803 275.288 488.022 282.241C480.436 288.579 472.872 289.685 463.264 289.182C454.578 288.377 449.632 283.563 443.99 277.284C439.275 270.253 438.836 263.777 438.911 255.555C438.909 254.465 438.906 253.374 438.904 252.251C438.901 249.894 438.905 247.537 438.914 245.181C438.928 241.448 438.921 237.715 438.909 233.982C438.88 224.042 438.881 214.102 438.9 204.161C438.913 196.992 438.904 189.823 438.874 182.653C438.868 180.182 438.872 177.71 438.886 175.238C438.905 171.779 438.894 168.322 438.876 164.864C438.889 163.848 438.902 162.833 438.916 161.787C438.825 153.868 436.53 148.976 430.951 143.397C424.857 139.57 419.449 138.025 412.264 138.709C406.017 140.721 402.336 143.69 398.644 149.07C396.565 154.551 396.883 159.819 396.928 165.631C396.915 168.209 396.902 170.787 396.889 173.366C396.882 177.412 396.888 181.458 396.903 185.504C396.917 189.422 396.89 193.339 396.865 197.256C396.879 198.454 396.892 199.653 396.906 200.887C396.826 210.012 394.798 216.645 388.764 223.584C387.939 224.286 387.114 224.987 386.264 225.709C385.501 226.411 384.738 227.112 383.951 227.834C376.825 232.806 369.78 233.699 361.264 232.709C353.524 230.668 346.957 225.849 342.602 219.156C338.47 211.417 337.434 205.27 337.6 196.569C337.596 195.362 337.591 194.155 337.587 192.911C337.576 189.093 337.604 185.277 337.639 181.459C337.663 177.628 337.678 173.797 337.669 169.965C337.665 167.592 337.679 165.219 337.716 162.846C337.713 154.839 336.413 149.871 331.514 143.397C326.126 139.356 320.4 138.132 313.725 138.358C308.361 139.124 304.541 141.331 300.889 145.272C300.353 146.076 299.816 146.881 299.264 147.709C298.604 148.699 297.944 149.689 297.264 150.709C296.965 152.869 296.965 152.869 297.012 155.286C297.004 156.695 297.004 156.695 296.996 158.132C297 159.16 297.004 160.189 297.008 161.248C297.003 162.876 297.003 162.876 296.997 164.536C296.991 166.897 296.988 169.257 296.989 171.617C296.99 175.359 296.977 179.101 296.96 182.843C296.914 193.484 296.889 204.125 296.883 214.765C296.878 221.272 296.854 227.779 296.818 234.286C296.808 236.761 296.805 239.236 296.811 241.711C296.818 245.186 296.8 248.66 296.778 252.135C296.786 253.147 296.794 254.16 296.803 255.203C296.676 266.236 293.344 274.739 285.592 282.604C278.557 288.966 271.704 289.565 262.404 289.147C255.724 288.603 250.914 286.41 246.213 281.619C239.299 273.245 237.816 266.46 237.844 255.817C237.835 254.636 237.827 253.454 237.818 252.237C237.799 249.009 237.793 245.781 237.795 242.553C237.795 239.843 237.786 237.133 237.778 234.423C237.759 228.012 237.756 221.602 237.763 215.192C237.769 208.624 237.747 202.058 237.709 195.491C237.679 189.82 237.667 184.149 237.671 178.478C237.673 175.106 237.666 171.735 237.643 168.363C237.476 140.154 242.394 119.687 262.514 99.084C291.431 70.312 333.802 71.553 365.264 94.709Z" fill="url(#paint3_linear_3_85)"/>
<path d="M1322.68 98.732C1342.35 114.362 1356.48 134.096 1362.67 158.537C1362.97 159.621 1363.27 160.705 1363.58 161.822C1366.23 172.465 1368.35 185.852 1363.67 196.225C1359.12 203.625 1353.84 207.494 1345.59 209.892C1340.41 211.037 1335.26 210.976 1329.97 210.969C1328.13 210.985 1328.13 210.985 1326.24 211C1322.9 211.025 1319.56 211.037 1316.22 211.043C1312.71 211.053 1309.21 211.079 1305.7 211.103C1299.08 211.147 1292.46 211.175 1285.84 211.199C1278.29 211.226 1270.75 211.27 1263.2 211.315C1247.69 211.407 1232.18 211.479 1216.67 211.537C1217.77 212.973 1218.87 214.406 1219.98 215.838C1220.59 216.636 1221.2 217.435 1221.83 218.257C1229.32 227.525 1240.88 233.494 1252.73 234.756C1254.82 234.875 1256.89 234.917 1258.99 234.912C1259.73 234.91 1260.47 234.909 1261.23 234.907C1269.99 234.713 1277.17 231.632 1284.73 227.369C1291.33 224.55 1299.68 224.63 1306.67 225.537C1314.95 228.909 1320.89 234.677 1324.7 242.693C1327.56 250.159 1327.76 257.275 1324.99 264.787C1319.71 276.461 1309.39 281.99 1297.76 286.536C1270.36 296.415 1237.81 293.733 1211.68 281.61C1203.22 277.532 1195.75 272.749 1188.67 266.537C1187.89 265.908 1187.11 265.279 1186.3 264.631C1167.73 249.159 1153.05 224.367 1150.82 200.033C1148.78 166.001 1155.53 137.719 1178.24 111.588C1188.04 101.362 1199.83 92.552 1212.67 86.537C1213.61 86.099 1214.54 85.661 1215.5 85.209C1250.85 70.164 1292.04 76.366 1322.68 98.732Z" fill="url(#paint4_linear_3_85)"/>
<path d="M1435.98 81.639C1443.5 86.934 1447.42 92.711 1449.67 101.537C1450.06 104.705 1450.08 107.825 1450.06 111.013C1450.06 111.914 1450.07 112.814 1450.08 113.742C1450.09 115.682 1450.09 117.621 1450.09 119.561C1450.08 122.64 1450.09 125.718 1450.11 128.797C1450.15 135.335 1450.16 141.874 1450.17 148.412C1450.19 155.988 1450.21 163.563 1450.25 171.139C1450.27 174.156 1450.26 177.173 1450.26 180.19C1450.31 196.527 1452.57 208.788 1463.86 221.35C1474.2 231.079 1486.32 232.011 1499.7 231.814C1510.13 231.422 1519.14 226.819 1526.65 219.654C1530.65 215.32 1533.4 210.951 1535.67 205.537C1536.02 204.78 1536.36 204.023 1536.71 203.244C1540.36 194.021 1540.23 185.053 1540.19 175.29C1540.18 172.245 1540.19 169.201 1540.21 166.156C1540.23 160.794 1540.24 155.431 1540.24 150.068C1540.24 141.473 1540.25 132.877 1540.29 124.282C1540.3 121.293 1540.29 118.304 1540.28 115.315C1540.29 113.474 1540.3 111.633 1540.31 109.792C1540.3 108.97 1540.29 108.148 1540.28 107.301C1540.36 97.83 1543.79 91.607 1550.26 84.744C1557.18 78.428 1564.84 77.05 1573.96 77.135C1582.56 78.066 1588.77 82.874 1594.24 89.314C1598.32 95.632 1599.11 100.742 1599.06 108.118C1599.07 109.522 1599.07 109.522 1599.08 110.955C1599.09 114.04 1599.08 117.124 1599.07 120.209C1599.08 122.373 1599.08 124.537 1599.08 126.701C1599.09 131.24 1599.08 135.78 1599.07 140.319C1599.05 146.084 1599.06 151.85 1599.08 157.615C1599.09 162.091 1599.08 166.566 1599.08 171.041C1599.07 173.163 1599.08 175.286 1599.08 177.408C1599.17 210.879 1591.5 237.699 1568.02 262.318C1561.22 268.795 1553.7 273.746 1545.67 278.537C1544.21 279.423 1544.21 279.423 1542.73 280.326C1538.19 282.951 1534.06 284.764 1528.99 286.118C1527.99 286.384 1527 286.651 1525.98 286.926C1525.22 287.128 1524.46 287.329 1523.67 287.537C1523.68 288.191 1523.69 288.846 1523.7 289.52C1523.79 296.366 1523.85 303.212 1523.89 310.059C1523.91 312.61 1523.94 315.161 1523.98 317.711C1524.03 321.39 1524.05 325.069 1524.07 328.748C1524.09 329.878 1524.11 331.007 1524.13 332.171C1524.13 342.398 1521.61 350.35 1514.54 357.85C1507.93 363.84 1501.09 364.79 1492.46 364.69C1483.94 364.22 1477.96 361.11 1472.05 354.97C1465.15 346.58 1464.09 337.413 1464.28 326.869C1464.29 325.708 1464.3 324.547 1464.3 323.351C1464.32 319.684 1464.37 316.017 1464.42 312.35C1464.44 309.846 1464.46 307.343 1464.48 304.84C1464.52 298.739 1464.59 292.638 1464.67 286.537C1464.07 286.411 1463.46 286.285 1462.83 286.156C1462.03 285.984 1461.23 285.813 1460.4 285.637C1459.61 285.47 1458.82 285.302 1458 285.13C1454.57 284.257 1451.56 282.748 1448.49 281.037C1447.53 280.514 1447.53 280.514 1446.56 279.98C1422.83 266.641 1403.05 245.673 1395.51 219.002C1392.52 206.665 1390.53 194.303 1390.51 181.596C1390.51 180.752 1390.5 179.909 1390.5 179.04C1390.48 176.28 1390.48 173.52 1390.47 170.76C1390.47 169.81 1390.47 168.859 1390.46 167.881C1390.45 162.857 1390.44 157.833 1390.43 152.81C1390.43 147.644 1390.4 142.479 1390.38 137.313C1390.36 133.318 1390.35 129.323 1390.35 125.327C1390.35 123.424 1390.34 121.52 1390.33 119.617C1390.23 105.178 1390.38 94.732 1401.01 83.9C1411.1 74.95 1424.46 75.092 1435.98 81.639Z" fill="url(#paint5_linear_3_85)"/>
<path d="M1057.67 86.537C1058.78 87.051 1059.88 87.566 1061.01 88.096C1069.33 92.007 1076.57 96.671 1083.67 102.537C1084.6 103.298 1085.53 104.058 1086.48 104.842C1105.4 121.189 1117.71 143.79 1121.67 168.537C1121.83 171.677 1121.84 174.815 1121.85 177.958C1121.86 178.9 1121.86 179.842 1121.87 180.813C1121.89 183.924 1121.9 187.035 1121.91 190.146C1121.92 191.212 1121.92 192.277 1121.93 193.375C1121.95 199.013 1121.96 204.652 1121.97 210.29C1121.98 216.102 1122.02 221.913 1122.05 227.724C1122.08 232.204 1122.09 236.684 1122.09 241.164C1122.1 243.306 1122.11 245.447 1122.13 247.589C1122.15 250.593 1122.15 253.595 1122.14 256.599C1122.16 257.913 1122.16 257.913 1122.18 259.254C1122.11 268.138 1118.78 275.304 1112.71 281.74C1106.01 287.666 1099.56 289.214 1090.73 288.83C1080.83 287.88 1074.87 284.17 1068.29 276.83C1064.02 270.765 1063.24 265.619 1063.32 258.396C1063.32 257.507 1063.32 256.618 1063.32 255.702C1063.31 253.782 1063.32 251.861 1063.33 249.941C1063.34 246.891 1063.33 243.842 1063.32 240.793C1063.29 232.126 1063.29 223.459 1063.31 214.792C1063.33 209.48 1063.31 204.168 1063.28 198.856C1063.28 196.842 1063.28 194.829 1063.3 192.815C1063.37 181.775 1063.33 172.395 1057.67 162.537C1057.19 161.685 1056.7 160.833 1056.2 159.955C1052.9 154.452 1048.75 150.405 1043.67 146.537C1043.08 146.074 1042.49 145.612 1041.88 145.135C1031.27 137.68 1017.31 135.844 1004.67 137.537C992.49 140.482 983.44 147.093 976.68 157.537C976.28 158.136 975.89 158.736 975.49 159.353C971.26 166.275 970.38 172.813 970.4 180.71C970.4 182.048 970.4 182.048 970.39 183.413C970.38 185.34 970.37 187.268 970.37 189.195C970.37 192.252 970.35 195.309 970.33 198.366C970.27 207.055 970.24 215.744 970.22 224.433C970.2 229.758 970.17 235.083 970.13 240.408C970.12 242.429 970.12 244.45 970.12 246.471C970.12 249.306 970.1 252.141 970.08 254.976C970.08 255.798 970.08 256.621 970.09 257.469C969.97 266.95 967.64 274.71 960.96 281.553C954.06 287.535 947.8 289.231 938.72 288.826C930.61 288.056 923.62 285.771 917.94 279.678C912.25 272.428 910.22 266.261 910.29 257.168C910.28 256.255 910.28 255.341 910.27 254.4C910.26 251.394 910.27 248.388 910.28 245.381C910.27 243.274 910.27 241.168 910.27 239.062C910.26 234.647 910.27 230.232 910.28 225.817C910.3 220.197 910.29 214.577 910.27 208.957C910.26 204.604 910.27 200.25 910.27 195.897C910.28 193.827 910.27 191.758 910.27 189.688C910.23 177.912 910.73 166.98 913.68 155.537C913.87 154.777 914.06 154.017 914.26 153.234C921.93 125.167 941.65 103.179 966.36 88.662C993.24 74.71 1030.56 71.677 1057.67 86.537Z" fill="url(#paint6_linear_3_85)"/>
<path d="M658.83 145.791C668.91 153.736 675.613 162.996 678.264 175.709C679.199 184.618 679.056 193.472 675.264 201.709C674.985 202.442 674.707 203.174 674.42 203.928C670.704 213.283 664.705 220.302 656.264 225.709C655.541 226.173 654.817 226.637 654.072 227.116C642.913 233.792 628.478 234.671 615.869 231.987C610.208 230.031 605.14 227.165 600.264 223.709C599.398 223.111 598.531 222.513 597.639 221.897C587.896 212.923 582.03 200.947 581.049 187.838C580.584 173.524 585.176 160.966 594.951 150.397C612.831 133.828 638.683 131.752 658.83 145.791Z" fill="#FDFDFD"/>
<path d="M810.627 143.163C813.138 144.838 815.442 146.603 817.744 148.554C818.462 149.161 819.18 149.768 819.92 150.394C828.289 158.101 833.502 168.231 834.045 179.667C834.064 181.067 834.068 182.467 834.056 183.867C834.051 184.608 834.045 185.349 834.039 186.113C833.742 199.658 828.362 210.472 819.213 220.378C809.38 229.044 798.326 232.958 785.369 232.867C784.531 232.861 783.693 232.855 782.83 232.85C770.456 232.607 760.509 228.345 751.494 219.742C742.563 210.2 736.614 198.844 736.181 185.554C736.694 173.518 740.177 163.866 747.744 154.554C748.507 153.502 749.27 152.45 750.056 151.367C766.263 134.406 790.476 131.914 810.627 143.163Z" fill="#FDFDFD"/>
<path d="M1278.67 136.537C1279.45 136.843 1280.22 137.148 1281.02 137.463C1286.46 139.832 1290.69 143.012 1295.05 146.975C1295.55 147.429 1296.05 147.883 1296.56 148.352C1299.83 151.445 1302.42 154.646 1304.67 158.537C1304.67 159.527 1304.67 160.517 1304.67 161.537C1274.97 161.537 1245.27 161.537 1214.67 161.537C1218.46 150.192 1226.19 142.986 1236.67 137.537C1248.91 132.002 1266.38 130.918 1278.67 136.537Z" fill="#FCFCFC"/>
</g>
<defs>
<linearGradient id="paint0_linear_3_85" x1="785.665" y1="76.71" x2="785.665" y2="291.822" gradientUnits="userSpaceOnUse">
<stop stop-color="#001B2F"/>
<stop offset="1" stop-color="#05416F"/>
</linearGradient>
<linearGradient id="paint1_linear_3_85" x1="629.725" y1="76.883" x2="629.725" y2="292.379" gradientUnits="userSpaceOnUse">
<stop stop-color="#001B2F"/>
<stop offset="1" stop-color="#05416F"/>
</linearGradient>
<linearGradient id="paint2_linear_3_85" x1="104.434" y1="-9.01639e-06" x2="104.434" y2="292.281" gradientUnits="userSpaceOnUse">
<stop stop-color="#12C6BE"/>
<stop offset="0.46" stop-color="#0DA9B1"/>
<stop offset="1" stop-color="#0888A1"/>
</linearGradient>
<linearGradient id="paint3_linear_3_85" x1="367.785" y1="77.324" x2="367.785" y2="289.289" gradientUnits="userSpaceOnUse">
<stop stop-color="#001B2F"/>
<stop offset="1" stop-color="#05416F"/>
</linearGradient>
<linearGradient id="paint4_linear_3_85" x1="1258.46" y1="76.978" x2="1258.46" y2="292.568" gradientUnits="userSpaceOnUse">
<stop stop-color="#001B2F"/>
<stop offset="1" stop-color="#05416F"/>
</linearGradient>
<linearGradient id="paint5_linear_3_85" x1="1494.7" y1="76.931" x2="1494.7" y2="364.7" gradientUnits="userSpaceOnUse">
<stop stop-color="#001B2F"/>
<stop offset="1" stop-color="#05416F"/>
</linearGradient>
<linearGradient id="paint6_linear_3_85" x1="1016.22" y1="76.709" x2="1016.22" y2="288.885" gradientUnits="userSpaceOnUse">
<stop stop-color="#001B2F"/>
<stop offset="1" stop-color="#05416F"/>
</linearGradient>
</defs>
</svg>
